<mxfile host="65bd71144e">
    <diagram id="kqYTqFlFQi94klK8HHeB" name="Page-1">
        <mxGraphModel dx="715" dy="516" grid="1" gridSize="10" guides="1" tooltips="1" connect="1" arrows="1" fold="1" page="1" pageScale="1" pageWidth="827" pageHeight="1169" math="0" shadow="0">
            <root>
                <mxCell id="0"/>
                <mxCell id="1" parent="0"/>
                <mxCell id="18" style="edgeStyle=orthogonalEdgeStyle;rounded=0;orthogonalLoop=1;jettySize=auto;html=1;exitX=0.5;exitY=1;exitDx=0;exitDy=0;entryX=0.5;entryY=0;entryDx=0;entryDy=0;" parent="1" source="5" target="17" edge="1">
                    <mxGeometry relative="1" as="geometry"/>
                </mxCell>
                <mxCell id="24" style="edgeStyle=orthogonalEdgeStyle;rounded=0;orthogonalLoop=1;jettySize=auto;html=1;exitX=1;exitY=0.5;exitDx=0;exitDy=0;entryX=0;entryY=0.5;entryDx=0;entryDy=0;" parent="1" source="5" target="23" edge="1">
                    <mxGeometry relative="1" as="geometry"/>
                </mxCell>
                <mxCell id="5" value="&lt;h1&gt;Gatsby 알아보기&lt;/h1&gt;&lt;p&gt;Gatsby 는 &quot;정적 웹사이트&quot; 빌드 도구입니다.&lt;/p&gt;&lt;p&gt;&lt;br&gt;&lt;/p&gt;" style="text;html=1;strokeColor=none;fillColor=none;spacing=5;spacingTop=-20;whiteSpace=wrap;overflow=hidden;rounded=0;align=left;" parent="1" vertex="1">
                    <mxGeometry x="90" y="280" width="270" height="120" as="geometry"/>
                </mxCell>
                <mxCell id="16" style="edgeStyle=orthogonalEdgeStyle;rounded=0;orthogonalLoop=1;jettySize=auto;html=1;exitX=0.5;exitY=1;exitDx=0;exitDy=0;entryX=0.5;entryY=0;entryDx=0;entryDy=0;" parent="1" source="6" target="5" edge="1">
                    <mxGeometry relative="1" as="geometry"/>
                </mxCell>
                <mxCell id="6" value="&lt;h1&gt;서문&lt;/h1&gt;&lt;p&gt;안녕하세요 당신은 Gatsby 에 관심이 있어 이 글을 찾으셨을 겁니다.&lt;/p&gt;&lt;p&gt;이 글은 Gatsby 를 처음접해보는 개발자를위해 빠른 시작을 도와주기 위해 작성된 글 입니다.&lt;/p&gt;" style="text;html=1;strokeColor=none;fillColor=none;spacing=5;spacingTop=-20;whiteSpace=wrap;overflow=hidden;rounded=0;align=left;" parent="1" vertex="1">
                    <mxGeometry x="90" y="90" width="510" height="120" as="geometry"/>
                </mxCell>
                <mxCell id="15" style="edgeStyle=orthogonalEdgeStyle;rounded=0;orthogonalLoop=1;jettySize=auto;html=1;exitX=0.5;exitY=1;exitDx=0;exitDy=0;entryX=0.5;entryY=0;entryDx=0;entryDy=0;" parent="1" source="8" target="14" edge="1">
                    <mxGeometry relative="1" as="geometry"/>
                </mxCell>
                <mxCell id="8" value="&lt;h1&gt;웹사이트 형태의 종류&lt;/h1&gt;&lt;p&gt;Static Website&lt;/p&gt;&lt;p&gt;Dynamic Website&lt;/p&gt;&lt;p&gt;SPA(Single Page Application)&lt;/p&gt;&lt;p&gt;CRS(Client Side Rendering)&lt;/p&gt;&lt;p&gt;SSR(Server Side Rendering)&lt;/p&gt;" style="text;html=1;strokeColor=none;fillColor=none;spacing=5;spacingTop=-20;whiteSpace=wrap;overflow=hidden;rounded=0;align=left;" parent="1" vertex="1">
                    <mxGeometry x="840" y="83.81" width="410" height="180" as="geometry"/>
                </mxCell>
                <mxCell id="13" value="&lt;h1&gt;참조&lt;/h1&gt;&lt;p&gt;&lt;span style=&quot;text-align: center&quot;&gt;gatsby 의 전체적인 틀과 간단한 테스트:&amp;nbsp;&lt;/span&gt;&lt;a href=&quot;https://blog.outsider.ne.kr/1426&quot; style=&quot;text-align: center&quot;&gt;https://blog.outsider.ne.kr/1426&lt;/a&gt;&lt;br&gt;&lt;/p&gt;" style="text;html=1;strokeColor=none;fillColor=none;spacing=5;spacingTop=-20;whiteSpace=wrap;overflow=hidden;rounded=0;align=left;" parent="1" vertex="1">
                    <mxGeometry x="90" y="620" width="450" height="70" as="geometry"/>
                </mxCell>
                <mxCell id="14" value="&lt;h1&gt;참조&lt;/h1&gt;&lt;p&gt;약자와 함께 간단한 설명:&amp;nbsp;&lt;a href=&quot;https://gollumnima.github.io/posts/webpage_type&quot;&gt;https://gollumnima.github.io/posts/webpage_type&lt;/a&gt;&lt;/p&gt;&lt;span style=&quot;text-align: center&quot;&gt;웹의 형태 간단설명:&amp;nbsp;&lt;/span&gt;&lt;a href=&quot;https://velog.io/@carminchameleon/Web-2&quot;&gt;https://velog.io/@carminchameleon/Web-2&lt;/a&gt;&lt;p&gt;&lt;span style=&quot;text-align: center&quot;&gt;정적 웹사이트를 대표하는 사이트 :&amp;nbsp;&lt;/span&gt;&lt;a href=&quot;https://jamstack.org/&quot; style=&quot;text-align: center&quot;&gt;https://jamstack.org/&lt;/a&gt;&lt;/p&gt;" style="text;html=1;strokeColor=none;fillColor=none;spacing=5;spacingTop=-20;whiteSpace=wrap;overflow=hidden;rounded=0;align=left;" parent="1" vertex="1">
                    <mxGeometry x="840" y="303.81" width="450" height="120" as="geometry"/>
                </mxCell>
                <mxCell id="19" style="edgeStyle=orthogonalEdgeStyle;rounded=0;orthogonalLoop=1;jettySize=auto;html=1;exitX=0.5;exitY=1;exitDx=0;exitDy=0;entryX=0.5;entryY=0;entryDx=0;entryDy=0;" parent="1" source="17" target="13" edge="1">
                    <mxGeometry relative="1" as="geometry"/>
                </mxCell>
                <mxCell id="22" style="edgeStyle=orthogonalEdgeStyle;rounded=0;orthogonalLoop=1;jettySize=auto;html=1;exitX=1;exitY=0.5;exitDx=0;exitDy=0;entryX=0.5;entryY=0;entryDx=0;entryDy=0;" parent="1" source="17" target="25" edge="1">
                    <mxGeometry relative="1" as="geometry">
                        <mxPoint x="510" y="520" as="targetPoint"/>
                    </mxGeometry>
                </mxCell>
                <mxCell id="17" value="&lt;h1&gt;Gatsby 사용해보기&lt;/h1&gt;&lt;p&gt;일단 만들어봅시다!&lt;/p&gt;&lt;p&gt;&lt;br&gt;&lt;/p&gt;" style="text;html=1;strokeColor=none;fillColor=none;spacing=5;spacingTop=-20;whiteSpace=wrap;overflow=hidden;rounded=0;align=left;" parent="1" vertex="1">
                    <mxGeometry x="90" y="460" width="270" height="120" as="geometry"/>
                </mxCell>
                <mxCell id="23" value="Gatsby 공식사이트의 설명" style="shape=image;verticalLabelPosition=bottom;labelBackgroundColor=none;verticalAlign=top;aspect=fixed;imageAspect=0;image=data:image/png,iVBORw0KGgoAAAANSUhEUgAAA1cAAAMzCAYAAABKp+i8AAAgAElEQVR4AezdC5zNdf7H8bcug3akZroMCtmJUspERCRU6KLUqI3dFpVsYUulUmv9baQLbajVDdsuXeimi1GhUuQWGymyQmG6EM1sMqX+j89v5nvmd86cMzdnnDNnXr/Hgznnd36/7/f7e37P7/L5fb+/76mWmnL0r2JCAAEEEEAAAQQQQAABBBDYJ4ED9mltVkYAAQQQQAABBBBAAAEEEPAECK74IiCAAAIIIIAAAggggAACURAguIoCIkkggAACCCCAAAIIIIAAAgRXfAcQQAABBBBAAAEEEEAAgSgIEFxFAZEkEEAAAQQQQAABBBBAAAGCK74DCCCAAAIIIIAAAggggEAUBAiuooBIEggggAACCCCAAAIIIIAAwRXfAQQQQAABBBBAAAEEEEAgCgIEV1FAJAkEEEAAAQQQQAABBBBAgOCK7wACCCCAAAIIIIAAAgggEAUBgqsoIJIEAggggAACCCCAAAIIIEBwxXcAAQQQQAABBBBAAAEEEIiCAMFVFBBJAgEEEEAAAQQQQAABBBAguOI7gAACCCCAAAIIIIAAAghEQYDgKgqIJIEAAggggAACCCCAAAIIEFzxHUAAAQQQQAABBBBAAAEEoiBAcBUFRJJAAAEEEEAAAQQQQAABBAiu+A4ggAACCCCAAAIIIIAAAlEQILiKAiJJIIAAAggggAACCCCAAAIHQYAAAggggEClEsi8Ty9f31zJrtC5KzWp+1DNcO/5W0ECmXpgVn9lFMJrxSOX6paZFZQdySKAAAKVUICWq0pYaRQZAQQQQAABBBBAAAEE4k+Alqv4qxNKhAACIQI9x76gAYW3y6XNWercZ1zIUiFvb31Cc7vVL5xZhVo30ppn6vIr2ql5o/qqUztZSUmFDMrLU+6O9fp40Xua8cJMrdji+4yXCCCAAAIIILBPAgRX+8THyggggED8CKR16q9brumujDR/NBVSvqQkJac1VeseTdX6gu5aMWuKHnhkvrJDFuMtAggggAACCJRdgG6BZTdjDQQQQCDOBNLU+cZH9OhdmcUHVqGlTkpTRuYdevSxgWod+hnvEUAAAQQQQKDMArRclZmMFRBAAIH4Emh96926pVt9FWmv2purHVs267NPs5VrRa6dpvRG6WpwZPCSyendNeLJJA27epxWRH3TGAQh6qQkiAACCCAQtwIEV3FbNRQMAQQQKFkg7Yr7NCw0sNqbq01zp2r0mFlaHyaJtE4D9X83dld6YNQ3Kem4dup9xTiteDbMCsxCAAEEEEAAgVIJEFyViomFEEAAgXgUyNQtvX1DklsR8zZr7n13afS8yE9RZc+bqOvWZuuBif2VUTtP21bN04xHxunltfG4jZQJAQQQQACByiNAcFV56oqSIoAAAkECaYM6+X5zyD7K06Y3JhYbWAUS2DJTtzyap4s/n0VQFUDhBQIIIIAAAvsmQHC1b36sjQACiSBQr6P69b9YnU5JV2pykpIOLNiovTZsebY+W5ylac/6hi2v10cTHuulpjULN37H4nHqeUdW4YzAqzQNfuwpXZwuaf0s9e4/MezIfN3ueUa3tE4JrKXdazSt/42aHHGo9DT1bmGJ+qYdKzVj3ErfjBJeZs3SyyUskv9xui4e0l8Xt2+qOj6fvF2bteLNaRr/SIZGz+uqBi4tN+x96HD43ufJyrj+Dc29XpJbzubX66gBA3ur2ylpSq5Z8ExYgf/H783U5AlZYbs4uiylNHW+fqB6n9tcDWr719+sFVkzNGlK4YiIrW9/SqPPSytcVXla869rNGhKhNa+0B8tLnb5Vhox/W619ydfmnrfsUQPZN6l2b5SuZdpgx7RtB7+us7Wgjuv0ohFbgkprVMfDbi4kzLSUwr97OM8e+5uvT54Y7qmPbsyzHcv/DNxk/bermFXtSu03DJPvf8QrpNpYRnsVevr/q5hVzQt/IFnm7ljpSbfOVTTrGV0n+s5OD/eIYAAAvEmQHAVbzVCeRBAoGSB+l01d17XkpcrxRJ2MXhLZlOluIDKv86BSUo+sr4yLuyvjPO6a8EjQzViVra0Zaomv91OD/h+Ryslo7sG1MvSpNBgqE1/tXLXxemtNKCNgi6Kvezq9dH5p/gCK0nbFk4tJrCytbqrcT1/YaUdn84Ne3EevFQZ37Xprwk3Z6ppcPG8RJJq11drG23wtyuVU8Zkgxavl1nQRTForlTg37rHEGU0TdfNf5qoNSGL5L9NVsZjj6i1/yEy+8BbP13t/3CHWrdrrQeGj9HcLdLiMdO1uOUQFcaySWp6wUB1mxIuuGmumy8M6Xq5eZ4mRwrEtEQjXlipl6/3rZPeToO7TtSw0NjbX+8pzXV+3zTNLpKufWfcFyh/a/NWZfm+Q6004KEh6tksTAXZ4knJSjmuuc6/rrnOufA9Tbp9pF4O/Y7mJxv4v1abJzQhI2SAlN07wgRmgVW8F+l/uK9IYJX3zRJNHnKXZlie+1zPwfnxDgEEEIhHAYKreKwVyoQAAvtFoPWtT2hE6GAQkXJOSlP7Gx/RAzWv1y3PZmvF/Vla0b5/Ybe8pHS169Nck0YFtxz1/l0r1QmkmabWv+slLZoemGMvMvp0CmoFs1ar2SHpBK3gvUnWwSEB4Y6t84su5uZ07aNhzf3NKe6D4L+5n2dp/LMF22AXw0Mz1bR28DKh75IzfIFE6IeleN+5f6YyQvLI252nJNeClbdZbz0VKbCSlJyu1sHxR5Fck47rpFtG5mmHNyJilsbP6KRHr/OVO6W5Lrk+TbMfCWm96pqpM3y/RS3lasWrJYyqOHO63r2wuc4PrJeijG69pKzi6j1JTTv1UcaUMcEjNv6hl1oHVVu2Fjzl0mmlm6cO1/n1g0d/LLLxBTOS6rXT4In3KWng0PxgJ+yCyUr3/2B3wTK5O80lcj4WWI3t6/O0RrMtwcHcPtdz2PIyEwEEEIgvAYKr+KoPSoMAAvtLoM1wDQoTWOVmr9HHH9nQ5clqkNFc6UHDlicr46rb1e896643U9MWdFWGr/WqTkamumllYetRvYE6q2nwBWlS03YaXG+6xgdaD7qqZ0bQ1bPXajWtJIfMNKUGLZOrnK+DZgS/adZOnc8LXO0Hf+Z7l7tifSC46jmkV5GgR3k7tOnjNVr/TZ6SjkzXSSfVV0rwJhamtuo9zT0wXentW6lBoAtlnjYtfk/rd0n6cb3X1a9TA3+rS57WP3uNrnvULubTdfH/DVTrNWM01tcFrjCDkFfWTXHFeu3IS1LK8U110nEpQeGABVgDrp+u6x7JVvaz4zS78xPqme4Kn6T0rkPU85GhmhFINk2DL22loNKtz9IDMwMLRHixUmNfXamzfK1Xpal31Wuunl2lFYEWrjQNbt80aBus1Wr08vxsWw8fWDSw2purbWvWaM22XKl2fWWckq6UgL0Nx99c/e7oowUDpxbfEuWr5+QGzVUre5akzLDbayNWFgmsNs/TA3fmtxS6lZpHq55dgvxFAAEE4lCA4CoOK4UiIYBACQI71mjuspAWhtBVjmmuzuH6shUsF9yiZLfZswu7/fnSKvIMSc2m6tSnuSaPWlm09SqllS4ZlKbZE/LL1m1gO6WHtC7pwHS1H9hV4wuez0q7vrsy/FfvuSv1comtVpJmZmv79fI925Kk6rV8BS/vy715BWv21zmn+MZqD9MS4S1Yr6OGjbpZncO1nmRN1eisTD3QtlXh81jK047lYzTaF6Bk5FqehUFOSsNWSpcNI79eL//1xlI8F5anbW8/pltGzgoKGNI63a7RQzupgUtaSUpv00cZj1jrULYmTVmidqPaFbYsJjfXxXc21wzn33Wg2ge1iO3QihceC8ojInNo61VovQ/q7uuW6FJJUetLByotq+C5vND891oLnmu16qXfBzdpFWkpyk+1lQZMvF09mxbWZVLTTurXYmogSHO5B/7uWqlJxbZuBZaU0u/To+eFtFh9nqURV4/TYt9i9vK7fa7nkAR5iwACCMShwAFxWCaKhAACCBQvkLtZo8eMKf7fJu9ncyOkk6mM4wJX3N4y2xZOzH+eKmSNxY/eqOdWuYAj/8M6J3RVfluTtV5tDlojvVUfZXhzehV5jsotmHJKV/Xznpdqrn5t0gNhhX2+acF0X8uJWyPc31z9tNc/P0mHH9vcP6Ncr7d7LRSSrkhXWlBgmK0Ffw/zvM6W+Rp9Z5bWB5WlbFlPfnWldvhWSWk9UI+++apenv53jbimq4LiG99ygZdb3tPYkMDKPsueN0bDXgsZhKFeujq5FReN1Msrgr8nddr2KaibNA24tHlwq9WaLI0PtCq5RCL9zW+98qdu9d7bW7y5+gUexAtZv+C5PJvbu1tw/rkfZWlsQauVrmiu+v4WKWVr8SNh6kdLNGngTK3Z7c8nTU3PDW4t9X+6aeG4YroN+pdMVkZIYJW7flbYwMrW2ud69mfNawQQQCBOBQiu4rRiKBYCCFSkQH2lFN7It8twrX9tScQMp61cr6DwqnaK2hcs7T175b+CLujalXFnV99zVHlas2BNYRoFrV/qmqkM/6AUuSs1+/7gZ7YiFkpLtO2b4E/rHN+1ILALnu+9u/8ade50Xsi/6SEX3TuUvapg3fopvlYxSVvWaLK7sA9NfstErQt0cwz9sBTvs+7SA8+u1DY/sg1GkdZU7XsN0aNZT2n0HyKHWNs+ywp+TsmXZfaE9drke28tZLVaFM6YMS5L6/351myqbn/qKrXpr3aBLoOSrNVoSgld6QqTzX9lrVf+2LtmU501KE36Qx+199X7toVLtC2wbsFzeaFdSvdu1rvTfc19ofWTvV4vR+w6OV0rPvdvpFTryHaBHINf5GrH5yW0CgevUPhub7YWPzOzSItVYIF9rOdAOrxAAAEE4liA4CqOK4eiIYBAnAj8kFcYGBUpUmjrlXXtGq7e/ueodqzU63/N0gpf80ydjF4aEdIyUvpWKyvESr38cchFcL1W6n1F5BaJ0KKnDWrlCwBtyOz1mvtm6FIF7w9MKuw+V2SRNFUPauUqskCJMxY/OlS/v3qoJr26Upu+CQ4ElJSm1n2Ha0SbEpMp+wJbHtPkhcGOKa17aUJf/0AkUlCrUalzKdp6ld5hiEb4n6Pau15L/jFRS3wNbPZ81oiQLqXly7+woDl7QkwLP4reqwPT1Hno3bq5mHqKWT1HbytJCQEEEChWgOCqWB4+RACBxBTYrB3+1ialKf2CVhE3tXfbkN/tyc0N+s2lIq1X6e2CnqPatHimZitL49/xXUGnNFd7f8tImVqt8ou6YuqSkO54ycroW/zFbWAj2wzR6AuCW4O2rZipuW6BzTsUTJSubr4WH7eY97dephqUPqYLWjXozRb7na6h6nfFher8p6laYYNeBKY0nXRBx8A7/4s6J3RXa/8M3+u0Qem+572sBSpX2SEtcItHTtdiX+CrA9PU1F83ees1e5yv1ciXfokvQ1uvvHovXCv3o3kavyVb419YUtg10p7PKhwn3ms1C2q1stXD1M/FEYOaXjrrhKCmWuXs8n0XC4tTxld5Wr9gZfD3JKm+zh96n3r6WuaKJFrOei6SDjMQQACBOBQguIrDSqFICCBQ0QIzi3STqtN2SNiuZzagxeXNQp7P+nhWSDe00NYrX/l3r9Hcgq5+2RPeC+mGV7hc2VqtCtbbMlGTFwS3usgubv/6jB64vmPBc2GFebhX6T1u1+Q7uvoGesj/Qd+ggTSeXa/soOeobCj64bo49KLZG9Cia9GBO1xmpflbr7tGPHS3ejfxLbx2uhZvCArvlFQzeHzEwNJprTRoePci2+sNaBESQGrLer0UWNG9yNL413zdNt3sgr/2m2NFfr8sZJnIb4u2XhUum63Frqtflu9HqgsX8F6FbbV6dqU2hzxH1frGEENvbRvQIjO4hVLZWvNaabufhhQm6G2eclYN1ejZm4Nbdms314CHwgRY+1rPQXnzBgEEEIhPAUYLjM96oVQIIFDBAtOeWaJuzXwjxSWlqHXfR/Ryt4Kh2JNSlH5SUzUIGopdst+gmje16IVpkd+9Kij/jo+yVDis+nS9vqK7mrb1Dw+YH9iU/lmrYJjFIyfq9UYhv3WUlKKMzDs0ret12vT5eq23Ybnt56DqpOv440KfN7NPcrVi2riQgTQe00uLO+kWX1m930l68hldXNqh2IOLGuFdK908qr/a109S+4mv6pL1K7ViU65s+O+MJiGtLTsitbYkqc7ZAzUto3uxQ7FLeVrzzvSwo/1lT5mqtzrc5/ttqoLiWn0/Gfl5vAgbFTw7dORA9+n6Jb7n2FZq8qL1ap8ZPMCJPetVpNXKW3+6/r24q0afXdhkmHRkK/Wb+IK6FQzF7g2Vf0L94KHYbdTHNfN8+brClP/v4vuv0QiF/GZcSnP1GzVEm/u4UQOjUc/lLyNrIoAAAvtLgJar/SVNPgggEF8Ci0ZqQugddwtA0pqq9Xmd1Pns5kUDKwtCnhqjyWEHb5ipB94Mufjfu14LJgYPLzf7H++FdOUrywiB4QiXaOydYzU3ZMACb8nkFDVo1kqdbXvO66TWzcIEVnt3aM2zY7wfRg5NffY/ZoZ0zbMR01PUIMN+M6uT2mcU8xtXoYlFeN/01v6Fv9V0YJJSmuSXt3WT4N+oUt56vRcmqA1K1n7X6Wzb1nbKCPmNK1sud8VUjZoS0tIXSGClxr4Q0sXNRm98e2qE+g6sWIoXKzX2GV+3P2+NHVr8QsGQ6wUpZD8yK+i5PJsdttWqYHkvsN4c8izVgcmqU1DnXv0EjSgoaddKTb6njANzFORX3J/F99+lySEjLybV76phjw30umxGtZ6LKwifIYAAAjEWILiKcQWQPQIIxE7Au+P+7BrtCOr+FqE89jtYf78+bBDi1sieMCvo2Z28Ne/5fiy4YKktE/XuGt8FcTmetXL5Bf7acOhX36jxb2xWbmm2pWDFvOyVmnHPjRr0aISWmS0zdcvtU7U421feQKaFL3YsW+kb7a5wfmlerbl/jCb7R/oIt1LeDi2eMjJy17zcbO9HjcOt6ublrp2l0TfPDNtq5Zbp1qp+8AiJ0agbl3jWRC3wx9723FFw3C0pSzNW+IK/iK1WLtElGttnpGas8j8w5j4r+jdvy3saX9rfryq6eglzsjXj5jF6PSTYS07vrmFjM7UjGvVcQgn4GAEEEIgHAYKreKgFyoAAAjETsN+x6tnnHk1bsEbbduUpzx+c7M1T7jebteLVx3TL1VeF/R2s4IL7B63YoRWz3Q++Bi9lXRLd0NvletYqOLmCd+v18phrdHGfoZr04hKtyc5V3u6QoGhvnvJyd2jTqvc0bexQ9e01VJPm+S7mw6W7drqG9bpGo//1ntZ/kxvkk7drsxbPvEeDhmYHP3MTLp2I89Zr2s2/03UTsrRic3D6ysvVtlXzNP7Pv9OwZ4srZ7beusKCy/Xa4f1QbUFmVn+bV+r1Cdfr4j9NjDxEuC3eYoh6+geRUJ7WZ4V2lYy4EaX4wD9oRZ7WL5oa8txefhIrps4LPJdXXKtVYYZLNOnPv1Pvu6drwaps5YbWeZ4Nrb5Srz86VH3/EO53sApT2vdX1ooaOhCJlJzRR6NvP1Zz97me972EpIAAAghUtEC11JSjf63oTEgfAQQQQACB+BVIU7+JT6h3U9/AJTuW6IHMuzQ7fgtNyRBAAAEE4lCAlqs4rBSKhAACCCCwHwW6DlQ3f2BlA1+8NpHAaj9WAVkhgAACiSJAcJUoNcl2IIAAAgiUQ6C5bv5dKwWN37jlPU2OOPBFObJgFQQQQACBKiNAcFVlqpoNRQABBBAoIvCHPjqnvn9urla8PCbs81D+pXiNAAIIIIBAOAGCq3AqzEMAAQQQqAICrTSiW1P5nrSS1s/TAzOrwKaziQgggAACFSJAcFUhrCSKAAIIIBDvAmnX91Hrwt/glVT0t6fifRsoHwIIIIBAfAkQXMVXfVAaBBBAAIH9IVAvU7d0TQ9qtcpbk6XxRX57an8UhjwQQAABBBJFgKHYE6Um2Q4EEEAAAQQQQAABBBCIqQAtVzHlJ3MEEEAAAQQQQAABBBBIFAGCq0SpSbYDAQQQQAABBBBAAAEEYipAcBVTfjJHAAEEEEAAAQQQQACBRBEguEqUmmQ7EEAAAQQQQAABBBBAIKYCBFcx5SdzBBBAAAEEEEAAAQQQSBQBgqtEqUm2AwEEEEAAAQQQQAABBGIqQHAVU34yRwABBBBAAAEEEEAAgUQRILhKlJpkOxBAAAEEEEAAAQQQQCCmAgRXMeUncwQQQAABBBBAAAEEEEgUAYKrRKlJtgMBBBBAAAEEEEAAAQRiKkBwFVN+MkcAAQQQQAABBBBAAIFEESC4SpSaZDsQQAABBBBAAAEEEEAgpgIEVzHlJ3MEEEAAAQQQQAABBBBIFAGCq0SpSbYDAQQQQAABBBBAAAEEYipAcBVTfjJHAAEEEEAAAQQQQACBRBEguEqUmmQ7EEAAAQQQQAABBBBAIKYCBFcx5SdzBBBAAAEEEEAAAQQQSBQBgqtEqUm2AwEEEEAAAQQQQAABBGIqQHAVU34yRwABBBBAAAEEEEAAgUQRILhKlJpkOxBAAAEEEEAAAQQQQCCmAgRXMeUncwQQQAABBBBAAAEEEEgUAYKrRKlJtgMBBBBAAAEEEEAAAQRiKkBwFVN+MkcAAQQQQAABBBBAAIFEESC4SpSaZDsQQAABBBBAAAEEEEAgpgIEVzHlJ3MEEEAAAQQQQAABBBBIFAGCq0SpSbYDAQQQQAABBBBAAAEEYipAcBVTfjJHAAEEEEAAAQQQQACBRBEguEqUmmQ7EEAAAQQQQAABBBBAIKYCBFcx5SdzBBBAAAEEEEAAAQQQSBQBgqtEqUm2AwEEEEAAAQQQQAABBGIqQHAVU34yRwABBHwCPcZo6pNjdFnBrBY3PKGpY+9UC98ipXk5aOpiLZx6Z2kWjfoyyRc8rFfeXayF77+l0Z2innxCJXjZX57V1L/0TahtYmMQQACBqi5wUFUHYPsRQACBaAmcd99bGnFmrUByebu2avnTk/TXf81RbmBuMS+OPU6NT5DqFiyS2qChGp+4R6nFrBJfH3XRLX1bqtamORo2fplytsdX6eKrNJlqcXpD1f00L76KRWkQQAABBPZJgOBqn/hYGQEEEAgR2LVKj/51hlbXOk7n9c7URQPu0riDVqn/lK0hCybi2yNU6xBp47vD9fbSRNy+aG5TvtX329dGM1HSQgABBBCIsQDdAmNcAWSPAAKJJrBH25bO0fJ5k3TP1bfr+U1JOrnTACXH+2YOflYLX39Y58V7OROmfKmqVVPa8fWyhNkiNgQBBBBAQCK44luAAAIIVJjAMq36MkdKTVXbCsuDhCulQNe6qqsc5WyrlKWn0AgggAACEQQIriLAMBsBBBDYd4G6anhYLemHPPH40b5rVq4U6qrNmV0iF7lOLSVpuzZmRV6ETxBAAAEEKp8Az1xVvjqjxAggUBkEklvqosF3qtdJ0tZZM7RckjfgxclrNeL8G/SGtw29Nfb1wWq2erzOGzqtXFt1cq+HNeyPLdXQ+h3uzdHGrCleXkGJJWfq5ocG6KLjaynpQCl32yrNfGGPMm9oolV/O0c362G9cUVDSQ014v231MXmZbXVlffdqr5n1FXygZK2b9Qrj65Vk2FdpGdbq8/4oBy8N4OmDlab2pKuWKyFV+Ro0d+mSIMHq9n2tfq+ThPVrZmjRfeeo5tn1dXZN43RwK5NVNcrd562fzZfE+4Yrje+LkjXuileUUvLl0otTk/1tm31U/frlWMGaFCn/DLlfjpLQ64epdVFi1I456TBGntnd7VpkD/QSN72tZo+I0eZAwq2PUtqMeJ1TWj1rd7eVFdnn5K/3Pal03THjeO1OvlWPfZKphouDamj5AGa8HxfNds0TSO/6qq7232rRztepX+6nM+8VcMG79Gg9+doY8G8hre8qOk9quuNoefrgcNqKWl3nhr+4y0tDM2zYPnkDiM18eaOapya5M3J3bRMU0bdoKc/zl/AK3ebPVq9/Qid3CBJuR9O0aWDPtJF/nrbm6N1L07SwAdnlm5QlYK8+YMAAgggUD4BWq7K58ZaCCCAQHiB2i014v3FWjjnYd1xwRH69v1pGnHvwvDL7uNcG/b8nhta6ogv52vCX4Zr2MPLlNdhsC473p9wWw2a+Gdd1ihPq56dpEE3TtIrX9ZVrxtaFj4H9t4UDXltq2SDcdw4ShPeq6uL7hupQWfW0tasKRp24/2a8IHU8bYuauxPOuT19DHTtHyXtPG14RrkpZO/QHKjuto27X7d88QszZwltfnLExqdeZz0ySzdc6OV+31tP6aLRjzxsC4KejgtVc2O+kj33Hi/Hv2PdHLfkbqjgzT/geEa9sQq7Tmhu4bd0jKkFL63FgCN6602R+Vo0RP3e9v+/JYj1GeAbXthq1HqIUlS7SZqpvn5eX2Yo9TTe+q6HpJy79ec/+Qp+dSOgSHyLYc2t3RXi6SNen7MeM2btVZbk45Tyytc3i016Nq2Sj3muMLtSR6gm8+tq9wPZ+mB96W2dWpJNRuqcbg8LZmT7tTEEV1U95v3vbod9JeZWpvcUoP+70G1KcjGK3fyEUpePVmD7p2pKc/MUkert9Ora61X18N1T1aOGmb+WeP6ujEoXRn5iwACCCBQEQK0XFWEKmkigEDVFXCjBSpHG5curMDugC11Xe+WSv1yvvpffXtB680cvb16pKZP7CJrh/KmHv100fHS8vHXaNCz+SMWLl86RxvHPqU7zihYJneZVufakOA2GMd8bWw0UqMtsJp1k/q4wHDpTK3a/aImZka+SN/+6XZZKnm5c7wWJ6l3fgafzdcdUwpaTqwlqFOqts8bpcy/zMr/fKmVe4xmPtZRVw5oqVcecIM85Gj5U7frFRt5cHtLXfSvjlLWKN0zyz7frjZdH1bHOk0kueULtqfgT5vbuigTlUQAACAASURBVKtF8la90r+H7ilo7Vm+dJU09WFdeUyOvi1YrslRtaSvF2r0n0Zpkc1b2kQd3++uWsfmL/B81ke67vRTdHYP6fkXJSUPVt8Oqdr6ziRN2CBpw3yt+7qt2rYbID07SeraVxcdn6e8vIZq1lPSlMJg7OkHJ3ktSE1Si8uzrvr/ubsa71yom6++Pb9MmqPle+rqlfua6aJO0qJ5klfuL+dr2OgpXuvY8jMf1Ctn1tLqKT006AlX16tUp+GL6tOurzRlVMEW8wcBBBBAoKIECK4qSpZ0EUCgigoUjBZY4VvfRHUPk3JXrwruFvfxJC3/sjC4Sm6YqmRt1bqCwCq/WFv1yry1GnSGBSZhphNTdYRytOo/wS1uqx9fpa3FBFdhUvJm5X69sbBLWruGapiUo1XvFwRWbqWPx2vRho667ER7TskFS4WtS9qQk5/GbvfZMuXulpJTA2GkS6ngb121bZgqfTZLEwoCq/wPlmnt1znSUXsKAt8uSk2W8r5cWxDEWPBUXdYRLzenIKmsOVp2XUu17TRAenGSzhveXSfnrdKEB9w2zNIrqwfo7BbNdJ5aqtlVLaUPp+mVWr110WkDpBm18oOxrLvzgzG1VHKxeXZXs0aSarbV2PcXh2xXjqp7vQTzy527aVVht8N2Db3fREvt+6IWhv428WchyfAWAQQQQKBCBAiuKoSVRBFAAIH4EMjdW44fqd1bgWW357eKm0r6vLh1gz7rqLqpUt5/txcGdgWfp9asLn29teC5t/zfm/p2++eFa7fLDy63BUbym6Xn/zNAZ3doqz+e1FAXnVldq58Yrqd9vwy96P3PldvpOJ09eIBaNtiq+aPG6/kLO+qyDs00aHgTnbx7ma97aBMdUUv69pNIeeYP074xa5TGZu0pLJf3Kk/bP7EXBb+TlePa36TG1hqWu0qP3jUjOOC2xXPck18hyfEWAQQQQCCqAjxzFVVOEkMAAQQiC6zbniMlVfdaF/xL7fk59ALa/2mk12u1daeU3KCZTvYv0qivmh3jm/GFtfjUVeNewd35zuvQpPCZK9/i3st12/WtaqnBacEDyDfs10TBqYSuWIr372zUxrxaanxm9+CFTxqsNo2kjavnBM8v97tp2rhNSvqttSb5puQBats4SXk5bvzGhkqtLeXu8OUbZiS/5U8t08akJuo97kzV/fJ9jQ/9UeishVq1K1VnX9FMWjrL64a4cd5Gba3dUldaMDZjVEEwZ2UpKc+12rpdqntsE62130wr+Le2UXcN6tlMyV5QVzSNNzZtl5LrqklS4TrLl+bo7H79dPbRrhnOZ8FLBBBAAIGoCxBcRZ2UBBFAAIHwAhvf26itNZup14Rbdfbpmfrjfb3VonaO1r07M/wKxc5dpkenLdP2Yzpq3JNjdGWnLjr7ijGa+o/uapw/uFz+2i9O1iufSS2ufUITbuirFqf31aC/v65hZ+aPihc2iw2T9PT7Oap7wUhNHTbAK+uVw57VY5kNve5yYdcp7czc+zVzUY5SO92qmX+/UxedXlDucR1Vd/syPT3JdfsrbYKRl5vyxirl1m6pWwp8WnS/UxOm9laLZCnHtfh0qqtU5Wj7usJ0kr2R/AqfyfI+2TBLyzdJycl79PYU94xb4TrSNM1ZbQHMVs0ZPyX/g6XLtGmXpNBg7PQjlFxsnjM1ff5W6aTuemyE+XfRRTc8padvaKlUG4jDUg9Tbv1zlhZZgHfbUxrUvYtadBqgEf+6V5edIOV9m/8Mlr/EvEYAAQQQiL4A3QKjb0qKCCCAQHiB92/SiIdt6PRMjf67PdSzXcunDNfN5fyto9zXbtAdtR/UsN911KC/dfSGK1/34v16/tRbfSPbLdSEgQ8p6f5+6nLFAE3oJdmQ3o8+/Ln63hDhmStt1StDhyv5b39Wr659NfqC/KHYn//LHDUbXcxvN4Xf6iJz3xh2lfK8odi7646/d5f22lDsczTChmL3dbUrsmIZZ+Q+O1x3HD5GI67w+yzTxsy2yssuCGhrStWVo299wZU3kt8PWxXoFejlW1e1kqTcD2dqdIT6emPeWvXSQo21QS68aZqW/TdTei0kGDsqSYeWkOfqB2/Q2NoPa1Cnvhp9bsEw+x9M0+ih0/K7OYYpt3Kn6eZb6+qxe7rryttG6kobXGT7Rj0/4qaQ585c+fiLAAIIIBBtgWqpKUf/Gu1ESQ8BBBBAAIFEEjj5thf1WNc8PX31FQWDUoTbupZq2GiZNgaCK0mNWqrhhmWBQSfCrcU8BBBAAIHEESC4Spy6ZEsQQAABBCpCoNGdmvpkdyVn3aRMNzR9ReRDmggggAAClV6AZ64qfRWyAQgggAACFSdQV1fe1FWNdy/TYwRWFcdMyggggECCCBBcJUhFshkIIIAAAtEXSL7gTvU9TSGj/UU/H1JEAAEEEEgMAboFJkY9shUIIIAAAggggAACCCAQYwFarmJcAWSPAAIIIIAAAggggAACiSFAcJUY9chWIIAAAggggAACCCCAQIwFCK5iXAFkjwACCCCAAAIIIIAAAokhQHCVGPXIViCAAAIIIIAAAggggECMBQiuYlwBZI8AAggggAACCCCAAAKJIUBwlRj1yFYggAACCCCAAAIIIIBAjAUIrmJcAWSPAAIIIIAAAggggAACiSFAcJUY9chWIIAAAggggAACCCCAQIwFCK5iXAFkjwACCCCAAAIIIIAAAokhQHCVGPXIViCAAAIIIIAAAggggECMBQiuYlwBZI8AAggggAACCCCAAAKJIUBwlRj1yFYggAACCCCAAAIIIIBAjAUIrmJcAWSPAAIIIIAAAggggAACiSFAcJUY9chWIIAAAggggAACCCCAQIwFCK5iXAFkjwACCCCAAAIIIIAAAokhQHCVGPXIViCAAAIIIIAAAggggECMBQiuYlwBZI8AAggggAACCCCAAAKJIUBwlRj1yFYggAACCCCAAAIIIIBAjAUIrmJcAWSPAAIIIIAAAggggAACiSFAcJUY9chWIIAAAggggAACCCCAQIwFCK5iXAFkjwACCCCAAAIIIIAAAokhQHCVGPXIViCAAAIIIIAAAggggECMBQiuYlwBZI8AAggggAACCCCAAAKJIUBwlRj1yFYggAACCCCAAAIIIIBAjAUIrmJcAWSPAAIIIIAAAggggAACiSFAcJUY9chWIIAAAggggAACCCCAQIwFCK5iXAFkjwACCCCAAAIIIIAAAokhQHCVGPXIViCAAAIIIIAAAggggECMBQiuYlwBZI8AAggggAACCCCAAAKJIUBwlRj1yFYggAACCCCAAAIIIIBAjAUIrmJcAWSPAAIIIIAAAggggAACiSFAcJUY9chWIIAAAggggAACCCCAQIwFCK5iXAFkjwACCCCAAAIIIIAAAokhQHCVGPXIViCAAAIIIIAAAggggECMBQiuYlwBZI8AAggggAACCCCAAAKJIUBwlRj1yFYggAACCCCAAAIIIIBAjAUIrmJcAWSPAAIIIIAAAggggAACiSFAcJUY9chWIIAAAggggAACCCCAQIwFCK5iXAFkjwACCCCAAAIIIIAAAokhQHCVGPXIViCAAAIIIIAAAggggECMBQiuYlwBZI8AAggggAACCCCAAAKJIUBwlRj1yFYggAACCCCAAAIIIIBAjAUIrmJcAWSPAAIIIIAAAggggAACiSFAcJUY9chWIIAAAggggAACCCCAQIwFCK5iXAFkjwACCCCAAAIIIIAAAokhQHCVGPXIViCAAAIIIIAAAggggECMBQiuYlwBZI8AAggggAACCCCAAAKJIUBwlRj1yFYggAACCCCAAAIIIIBAjAUIrmJcAWSPAAIIIIAAAggggAACiSFAcJUY9chWIIAAAggggAACCCCAQIwFCK5iXAFkjwACCCCAAAIIIIAAAokhQHCVGPXIViCAAAIIIIAAAggggECMBQiuYlwBZI8AAggggAACCCCAAAKJIUBwlRj1yFYggAACCCCAAAIIIIBAjAUIrmJcAWSPAAIIIIAAAggggAACiSFwUGJsBluBAAIIJJbA707arb+clavUmr8k1oaxNSUKbN99gP72brKe+bhmicuyAAIIIIBAfAnQchVf9UFpEEAAAU+AwKrqfhEsoLb6Z0IAAQQQqHwCBFeVr84oMQIIVAEBWqyqQCUXs4nUfzE4fIQAAgjEsQDBVRxXDkVDAAEEEEAAAQQQQACByiNAcFV56oqSIoAAAggggAACCCCAQBwLEFzFceVQNAQQQAABBBBAAAEEEKg8AgRXlaeuKCkCCCCAAAIIIIAAAgjEsQDBVRxXDkVDAAEEEEAAAQQQQACByiNAcFV56oqSIoAAAggggAACCCCAQBwLEFzFceVQNAQQQAABBBBAAAEEEKg8AgRXlaeuKCkCCCCAAAIIIIAAAgjEsQDBVRxXDkVDAAEEKlpg40pp/s/lzOVn6R8ry7kuqyGAAAIIIJCAAgcl4DaxSQgggECVFMj+SDr9HenE30ifbJAaniYNOVPqcXRkjhfflz5Jkjo2LVwm+1Ppqg8k/SJ98rV0Ylr+ZzdlSt2SC5fbuU4a/L7UprnUvHB25FffSUNfk2Z/J/0oaUim9Kc6IYvnSbM/lP6xVPpE0o8/S92aS0PaSCfUCF7WtnewpOdOCZ7/9DOSzpeuPDR/fsBF0udJ0vVdpZsaBK9j77K/kMa9L724TbJNzk6VhnSQ/uSW/UI6eKbU8fDCdZufId13QuH7lR9Ig5ZKO3+Wjmsqje8iNSz8mFcIIIAAAgkuQHCV4BXM5iGAQNUSaNOhMNjYuU0a/pL06fnSHccWdfhxg/TC0dLhy6SNTQuDgLQTpDcsYPheuvx1afzv8oON0BReXCZdebT0wgapeaPQT4u+n/KKVKODtMqClR+k4Quk7Dq+tL+TBr8o1WgpPXWDdFhB34rsDVL/f0hX9pGu9AU2RXOIPCfg8qM0/Enpxb5Sj0MKl//gHena7dLjF0r3uQAyV3pwqZTdwFfG5tIbHQvX878yz4s2SgsG5VtaoDX7K+lPxQS3/vV5jQACCCBQ+QXoFlj565AtQAABBMIKHFZHGn+59MnM8F3/Zq+U+nWU+ibnt9aETSTSzG3S5DrSY2dKs1dLOyMt55ufvVVq41qqDpFGdvEFLZKeniPVOEu675TCwMpWT2skPZcpPfKctM+9EGtI558gfbq9sGA/fiEN2iS9cql0hgus7ONk6aaOwWUsXKvoq50/SCc2KgxSrVWLwKqoE3MQQACBRBYguErk2mXbEEAAgcOlvk2l2RtDKLZLUyT1SM3vdvfC+pDPS3g7f7V06clSjTrS9Tul+T+UsIKkKy+Uhv5b+sc6aecvIct/L734o3R9esj8grc1jpWGHCnN3hL+89LO/XG79MhHUvMjC9dYuV7q2LYwKCr8JMyrldJ5Uwv/Df20cJm0xlLH1dLl86UPvi+czysEEEAAgaojQHBVdeqaLUUAgSoqUDNJ2hgS/KxcIzVvLh0mqUYj6dI14Vu3wpL9ID29TepR0ArVo6U0xRdkhF1HUsOTpaWZ0mFbpNMfkvyBiXZJL9aQQh6rCkqqzuHS57uCZpX6zYvPSQffJZ37jtTj91I3X0affyUdXr2USVm3wD6F//zPWylJuqOPNLKeNHmm1Mxa2vJKmS6LIYAAAggkhADPXCVENbIRCCCAQGSB3XnSCbV9n/8svfC+dE+udI9vdt91wQNb+D4KernxU2nKOmnKXb7ZdaSVp5U8sEWNQ6UrO0pXtsl/9mnKkVLfVEm1pR4/5g904Us16OW276TjGgfNKvWbHpdLfTdKsxtLPXytVpbAcUdKK/aUOqniFzxAOqGx9FhjaeOHUvt3pM/OLT5oLD5BPkUAAQQQqEwCtFxVptqirAgggEBZBb6TpqyROtYrXHHjR/mDXPx0txT4d5dUwwa2KFws/KufpcnvSAv8694tLc3IH9gi/Eo27J+08jvfpwXPPmW7FrVDpR41pEcidE+056LGfSN1823HYYdIL37jS7PgZfZ26bCkovO7dZVqzJae9pdDUvPG0vzSbHvRJIPmZG8Lfvas4XFSm+3B84JW4A0CCCCAQMIJEFwlXJWyQQgggEC+gI0WaKPvnZgpdfT1U3hxkXRl6LNNNfKHbLdhyIubbPj12S2lM0IWat5E+mBlMYHE/6Thz0kf2BjsNv0gTbdnn6zVqmC6sou0c7Y09KPgZ7JstMDLZ0rXXx7cMlajvnTTR9KUr1wKkv1u1yPHSm183f4CnyZJIy+VHpkbHETa81wT6kgXPSPN9z8rZd0fP5CyAwkU/+KT1dJg34gbKz+RttUv/YAYxafOpwgggAAClUHAd7qN3+IeeOBBqlG9hg466GBVq1YtfgtKyRBAAIGoCfgihjKkuegd6bxl+b9PldFUuulyqaNvBDwbLnxcHWmVbxhyl3yb46X+H+X/9lS42MSWs+HXe53r1vD9TZWuzJVe3F7Qzc/3kfcyVXqqqzT4celaa8iqLY20Z5/85ThceuxayUYxvOrh4N+5uu9PRX/nyp5xuq+PdM+b0rFbpBp7pDatpVe65j9LFloEe1+jgXT/BukPC6QF7QuXOKOD9OYGafTrUv+NUo3qko222KtNSHBkA1psKlzP/ztXHTtI2fOl4x/M7waY0VJ6xZdH4Vqle3VY7ZTSLchSCCCAQCUX+PXXX/Xzzz/pxz0/au/e8v6yfXwgVEtNOfrX+ChK+FJYYJX8m1r68ccflPdTngyfCQEEEEh0gewh5QuuEt2lKm1f2jh+IKsq1TfbikBVFrDGk6SDk1SjxiHK/V9OpQ6w4r5boLVYWWC1J28PgVVV3uvYdgQQQAABBBBAAIGEFLDGE7vWt2t+u/avzFPcB1fWFdBarJgQQAABBBBAAAEEEEAgcQXsmt+u/SvzFPfBlTUT0hWwMn/FKDsCCCCAAAIIIIAAAiUL2DV/ZR9fIe6Dq5KrgSUQQAABBBBAAAEEEEAAgdgLEFzFvg4oAQIIIIAAAggggAACCCSAAMFVAlQim4AAAggggAACCCCAAAKxFyC4in0dUAIEEEAAAQQQQAABBBBIAAGCqwSoRDYBAQQQQAABBBBAAAEEYi9AcBX7OqAECCCAAAIIIIAAAgggkAACBFcJUIlsAgIIJJ7A9t0cnhOvVku/RdR/6a1YEgEEEIgnAc7e8VQblAUBBBAoEPjbu8niArtqfh2s3q3+mRBAAAEEKp9AtdSUo3+N52IfVjtFO3ftiOciUjYEEEAAAQQQQAABBBCIgkBlv/an5SoKXwKSQAABBBBAAAEEEEAAAQQIrvgOIIAAAggggAACCCCAAAJRECC4igIiSSCAAAIIIIAAAggggAACBFd8BxBAAAEEEEAAAQQQQACBKAgQXEUBkSQQQAABBBBAAAEEEEAAAYIrvgMIIIAAAggggAACCCCAQBQECK6igEgSCCCAAAIIIIAAAggggADBFd8BBBBAAAEEEEAAAQQQQCAKAgRXUUAkCQQQQAABBBBAAAEEEECA4IrvAAIIIIAAAggggAACCCAQBQGCqyggkgQCCCCAAAIIIIAAAgggQHDFdwABBBBAAAEEEEAAAQQQiIIAwVUUEEkCAQQQQAABBBBAAAEEECC44juAAAIIIIAAAggggAACCERBgOAqCogkgQACCCCAAAIIIIAAAggQXPEdQAABBBBAAAEEEEAAAQSiIEBwFQVEkkAAAQQQQAABBBBAAAEECK74DiCAAAIIIIAAAggggAACURAguIoCIkkggAACCCCAAAIIIIAAAgRXfAcQQAABBBBAAAEEEEAAgSgIEFxFAZEkEEAAAQQQQAABBBBAAAGCK74DCCCAAAIIIIAAAggggEAUBA6KQhokERWBaqpm6Xj/RSVBEkEg/gR+lX71SpX/f/wVMFKJ2D8jyTA/QQTYNxOkItmMhBSotPtnQtZGiRtFcFUiUcUuUD2phqpXr6kDDiCqqlhpUo8ngV9++VV79uzWnrwf46lYRcrC/lmEhBkJLsC+meAVzOZVaoHKsn9WauQoFJ5ugVFALG8SB1SrRmBVXjzWq9QCdjPBu6lQLX5vKrB/VuqvGIUvpwD7ZjnhWA2B/SBQGfbP/cAQ91kQXMWoiqpVq+Z1j6LFKkYVQLYxF7DvvnUOtH0h3ib2z3irEcqzPwXYN/enNnkhUDaBeN4/y7Ylibs0wVUM67bgKY4YloCsEYitQDzvA/FcttjWGrlXBYF4/v7Hc9mqwneDbYy9APtA7OuguBIQXBWnU2GfFdypj78b9hW2xSSMQFiBwD4QeBF2sf07k/1z/3qTW1wKBHbJwIs4KCb7ZhxUAkWIB4HAbhl4EQ+logwFAgRXMfgqsCvEAJ0s41ognvaJeCpLXFcahasSAvG0P8RTWapE5bORcS/APhGfVURwFZ/1QqkQQAABBBBAAAEEEECgkgkQXMWiwrjVEAt18oxngXjaJ+KpLPFcZ5StagjE0/4QT2WpGrXPVsa7APtEXNYQwVVcVguFQgABBBBAAAEEEEAAgcomQHBV2WqM8iKAAAIIIIAAAggggEBcChBcxWW1UCgEEEAAAQQQQAABBBCobAIEV5WtxigvAggggAACCCCAAAIIxKUAwVVcVguFQgABBBBAAAEEEEAAgcomQHBV2WqM8iKAAAIIIIAAAggggEBcChBcxWW1UCgEEEAAAQQQQAABBBCobAIEV5WtxigvAggggAACCCCAAAIIxKUAwVVcVguFQgABBMoucONNg/TJ2v8oa84rpV75njF/0/oNa8q0TqkTZ0EEEEAAAQSqmADBVYJUePOMUzVh4oNa9uEiffbfj72LpY8/WaHnZk6TfWZTt/O7eJ9/sGSBOpzdPmjLbZl3Frylj1YvU8+elwY+s/n//NeTsrTsAsz+znz+abU+o1VgGV4ggEDxAi/PmqlP132kW4cOKbLg40/+w9u37rt/dJHPmIEAAhUn8NS/J3v7np3b7J+dO1f8Z7GemDwpcN6suNxJGQEEElWA4CoBatYCpYfGj/WCp9q1D9WPP+7R//73P1WrVk1NmjRWw4YNvK1MT/+tDjmkplJSDlfnzp2Ctvz887vo6KOPUvXq1ZV+/G8Dn912+y0688w2Ouigg/TDDz/o119/VbNTTtYlPboHluEFAghEFjj99BZKPSLF24fatz9Tv/nNbwILn9flHJ1ySjPvfcPj8vfTwIe8QACB/SKwd+9e75xp587k5GSdffZZevSxh4NuNJZUkPK0GpeUJp8jgEDlFCC4qpz1Fii1XajZQb1evbrKycnR3x+coGYnnaZTm52uTmd30ayXX/OCIlvh2GOPUVJSkg444ACv5cq1aB13XEOd3bGDd/F34IEHKi0tzUu/TZvWqn/sMd7rl196Raec3FKXXNxTj056QnePvCdQBl4ggEBkAbu5ceihh3oL/Da9kf5wVe/AwtaabDc7bEpNTZXti0wIILB/BT7fsNE7Z9q5c8Twv2n79h1KTU1Rn35XsU/u36ogNwQSQoDgqpJXY+/f/07HH5+un3/+WTOee14PT5wU2KLs7K/0l7tG6I05b3nz6tatE/jMWqnOPbez9z6z56WqX//YwGd16uYHV9b69dPPP3vzT21+irp3v1DrP/uvxo19yLvLZx9cfMlFevvdN73uFGs/W6UXX36OLoMBSV4gIB1b/1gdfPDBHoW1DLsuufa3TZszvBZm+9DumB/X6DhvOWs9nvrPx71uuNZVadHid71noqzrknVlssmeq7Lnq/41bYrXnfc/q5aqyQmNvc/cf0Nvu9lLw/bNsePu1VFHHamxD97nLW9pLV/xgaxFO3S6/Y5bvTwtb/tn3Y2H//VOr9X6rXmzvXmPPf5wYDXr0mjdqXr//kpvnt24efudN7zlxk8YFyjrszP+rVUff+jNX7r8ffW/7upAGrxAIB4Epk17RlMmP6U9e/aoQYP6Ove8/PNkv6v7aOGit73vru13dq6z77Ltd3+7e4T69rvK289t37V51rujuHXo/REPtU0ZEKgYAYKrinHdb6laUGQXbLt2fa8PPlgaMV+7I16nbh398ssv+u/6DbIWKuuilJZ2tPfX3q9du07WPeKoo47SKaecrI8+Wq0Xnn/JaxH77W8baeyD93oXY3aRZuvZ1KNHdx1zTD399NNPysv7SQcddLC2b98esRx8gEBVE7ALNAuutmzZ6rUiN258vHejwrrmWqvVtm3Z2vndTv3mN4coPb2Rx3PXXbfrzHZtvZbmH3f/qFq1koO66zpDS/eMM1qpmqp5d9t3/7DbfaQR/3eX/tjn9977p6c/q5uH3Kabbv6zLrywm2rWrKndu3/00nct2G5FW88uFI84ItXrYmz5W3dju5Fz1VW9NSfrTe84ccqppwRawO0ZzFq1aunsjmd5ydiNm7Q6adqx4zu9+urr3jwra9MTT9TyZcs9i8MPP1y9ev/OO9a4vPmLQDwI/Gflf7x9skaNGl7LlT2HfMPAATrq6KO8c52d75o2PVE1a9bwirv3l73evmLd5vO7GP6gFi1PK3adeNhOyoAAAhUjQHBVMa77PVU7oOft2RMx3xNObKLatWtrz4979PrrWd6FmHVRsjvU9tcugua+NV95e/K8O+j1jqnnpTX+oYfVM7OXpv37aW3duk2HHlpL3S++UPfeP9p7duSHH3Z7z2F9vHqN/jz4Zl179QCvdStiQfgAgSom4J55XLniP/r440+8QOWynj28wMRudrz5xlzt+v57L9Cx1mXrKnhys5O9i7R/PTVdzU5uoXM6ddOKD1eGlXv77Xe9Zawb8ObNX3jLpNU5Wj0vv8x7/c+p/9aIv97tBTHW1de6Bc+Z86bOaNXe+2ev7aLQJrupYl2E/ctY/rNmvea1sLU/q502bd7s5WOB4QUXdNMll1wUuNmSkdFcl2X28IIsu2Gz+IMlgZZzy+PV12armswahQAAIABJREFUzx+v1ZNPTJUFgha0NWxIV0gPn//iVuCcczt739VNmzar15V/9LrIP3D/g9532Apt+7bdwLAeJNbFsO0ZHXTUkUcWu07cbiwFQwCBfRYguNpnwtgmsHbtZ7I7y3ahc1aHdhEL4waz+GH3bq1a9bFWrVrttXjZhZy1fH300SqtXPmR7HMb9MLfVci6Av51+N/Uof053kWWXSSdcEITr/vfuHEPeRdq1h3p0ccm6rmZ072ughELwgcIVCEBN5iF3fzIzs7WO28v8LobWWuTBVJfffW1Zs161WvttYDGAjH7Z3fErVuS7Zc2WRffJUuWeRdvfj67g243NkIn62Jo+/WePXn68ssvvY/rN6jvPftlF4C2T1u3X/v33oKF2r07v8Ur3DK28oJ33/OWsXLZDRgLCC0wbHvmGd7D/1bWJYuXejdfevW6wtsGf6uVpWH5fpX9lVcWez70l19/8YK4Aw7kNOSh8F/cCJza/FQddvhh+vHHH/X55xtVt15dr2zW+myBlE2vzHpN27KzI5a5POtETIwPEECgUglwVqtU1VW0sNZtb/1//+sNRmF3qq3rgptssAtrmbIRyexCzgazyM3N1ecbPtdbb87T99/neN0DrUvhKy+/pm+/+ca7gLLuO/ZMlnUXevrZf3ndi1ya7q9rKbOLuGemP6c2rTvoPys/8vKxroJMCCAgWQuwdZezgOTLL7dqTtYb2rhxk7ff2U0KC7bsYu27HTs9riOPOtL73LrsWXDkRhK0britWrX09vPSuNodduvmay3N199wnddKtnnTZn3//fdeGvZciB0f7F+79m29boKWbrhlbL61WLmuhN99951mznjBa72ywW+OOfYYbfx8k5577nnl5OTKns+0Y83ChYsCrValKTPLIBAPAnYeveqqXt7+Z/uR3UjYumWrVzQbOMp1o72o+wWqUzD4U7hyl2edcOkwDwEEKp/AQZWvyJTYL2B3nm2EwL8MH+bdLbaRAwf8qb9++WWvdwFnQdCnn671Rgq09ex5KLsTZ//sgVq7s75u3Wfe3XP7fNfOXd4zVPYcVefOHb1uQi1bnqbLMi+Vfv1VNQr6mK9bu867s/7gg/d5d/XsDp/1T7cLxu925l8o+svJawSqokCjRsd5gYbdyLC73rbfvT3/XdkzjDt37tLcufM8lm3btnktQdZN7ttvvtXqVau9Z67+cFUvbzjoagdU8/av0hr+lPeT7rt3rEaN/j9v9E87Pvxt5GgtWrRYl156sbp0OVcdOuQ/H1WjRvXAoBr2nOXb89/Rlb2uKFymYL+3liprwbKA0Ca76Lz6mj7e6wUL3tdLL87SpZddorZtz/C6Hdt7JgQqg8BxjRp6g1AcUO0A7xxnP2NiLc2PPfqkt8++9eZctTy9hTfAxfSn/+m1wtrND+v6aufgcFN51gmXDvMQQKDyCdByVfnqrEiJ7WLn9736yIZLt1You1iyO9LWzWjTxs3ehZMNZmGT3WF2k61nd6FffSX/gXObb92PbLLlJ/3jce9ZDbvTnpR0sGoeYg/B79Zrr87W7bfdpaVLl+utt+Z7d6sPOeQQ7+Lw/fcWBo1Y6PLiLwJVUcANZrFz507v+SMzePPNud5+tmjRB4FAxZ5nzMvL87rtWbdA27+sddl+d8duaFiLkHXlK8tk+/cjDz/qtVBbmjZy4KyXX/VGFbUWbK+LX16e1nz8SVCy9nyWjZb27bfbvWOJ5W/HlWn/fsY7HriFXeuVPedlr22ywS7sYtO/bW55/iIQrwIWJNk5M6l6kneDcfbrczTwhpu8c6qVecaMFzTugb/ryy++9Aansd4da9Z84g0KE2mbyrNOpLSYjwAClUugWmrK0flPMsdpuQ+rnaKdu3bEaenKVyy7K2aT/T201mHlS4S1EEgAge9zdgYGU7BWz3iY2D/joRYoQ6wF2DdjXQPkj0BkgXjcPyOXtuyfVPZrf1quyl7nrIEAAggggAACCCCAAAIIFBEguCpCwgwEEEAAAQQQQAABBBBAoOwCBFdlN2MNBBBAAAEEEEAAAQQQQKCIAMFVERJmIIAAAggggAACCCCAAAJlFyC4KrsZayCAAAIIIIAAAggggAACRQQIroqQMAMBBBBAAAEEEEAAAQQQKLsAwVXZzVgDAQQQQAABBBBAAAEEECgiQHBVhIQZCCCAAAIIIIAAAggggEDZBQ4q+yqsEa8CQ4YMUaNGjQLF27Bhg8aNGxd4H+8vWrZsqd69e3vFnDZtmpYtWxaxyMccc4wGDBigl156qdjlLIFQF5v39ddf66GHHtKuXbsi5lGRH9SuXVt//vOf9cEHH+iNN96oyKxIO4YCrp6POuqooFJUtn0zqPAV+Mb260GDBmnu3LkVvl+4483BBx8c2KIlS5boqaeeCrznRdUQcPtpbm5ukXPmeeedp+7duwdBzJo1K/D9tM/POOOMcp9PXN778xixr2UOwqigN3betin0Gsbmf/vtt4H91N4nJycX8Xeulkakc/1VV12ljIwMueuNyuBSQdwkG2UBgqsog8YiOXdB8tVXX2ngwIGBIlxzzTWyz7788svAvPK+CD2glTcdt15oenYgPP/88zV79uzAScstG42/oRdNlv+IESMCB9Vo5EEaCEQS8F+MuZP+vffeqwkTJkRl/4yU7/6eX5abHlY2C3AuueQSTZo0yXOwY9Vtt92234r9v//9L5C3O47aBde+BFihx7b9tjFkVG6B1q1be+vaRXq4c6b/ZpwLym2FaN4Y29djRKJ975577jnvBqp5uxut9jopKUkvv/yyV1/23urMpuOPPz6wnDdDUl5enlJSUmT1G1pXVs8nnXSSW5S/CERVgG6BUeXc/4nZhVq/fv308ccfF7nD88QTT1SaC7datWp5B80dO3bsF0S7G7ZixQqdddZZ+yU/MkHACVhr6ciRI2U3Qzp16uRm8zfGAhbYWYvZEUccEeOSkP3+Fjj55JO9XgTWclXSPmkX+nbuSEtLq7BicoyQd+2ybt26wDna3YD98MMPAz1OmjZtqo0bN3r/wp3LLRCzAMvqN3SyerabK/aPCYFoC9ByFW3R/Zye3a2xA8i8efOKzdndlf3Nb37jLWcHFHfX3N1J//TTT9WiRQvZMj/99JPXqvPZZ5953desy4J1OQxtQnfdJdzyduIpa3oLFy1S2zZtZN1z+vTp47VgzZgxw+si6O/252+yL3ZjS/nhmjVrvLvmZpOTk+Nt57Zt22QH7O+++07z589Xly5dAne2LVm7q20XXxac2XrWNfHdd99V586dg9zcnTYrszOy9UNb0EpZVBZLQIHVq1d73Ylsf7GLqdDvSmjXQbdfue5D7m761VdfHdRNxn0vbd9x+69/37Z0n3zyycB+7d93HbN9z1u1auW99R8r3D5o+8mpp57qfe7K6e7o+/dj645jN06sq5879rhy291kt2/cfvvt8pfL3122OJfiyuO2pSx//RfMxR0zLc1QoylTpujyyy9X6LEyOzs7aPs5BpSlRip+Watna/2w84FN1sXP7ZORcrdzgHVNCzeFfi/ceTbcsiXN8x8jbFnrSu72f7dfunNX6PfO7fuhy/t7snTo0ME77ljabr90XeX922Gf+1vW/J+5cli6ofuM/7vuPz6Epmfvw012XWPnWFvXWqBsWrx4sffX6qhu3bp66623vPfWAm75+7fPPvjoo490yimneGm487Jb144z4YIyL0H+Q2AfBAiu9gEvHla1A47dmbEDbKTJHfCsdct1d7GDo7V42cWPmyywcicC62Jg3fTsc7vLHtrlwC5qLKAYM2aMdzCz97a8HdDdVJb0Fi1cGPQMlZW5oie76LHJLqicX506dbzugnaCsQN6SZNdSJqDczOHnj17ytK2g3z9+vWDjGxZ2zaXX0np83niClgrrd0YseDDAo1u3bpp6tSpXtcWF0jZfmr7rHtvd2ltf7TJLuRLO7l90Za3QMffJdb2bbvAcBcelmfDhg115513ekGfvbe83LMPdrFm5bAuyO6Cyb731u3Gvvehz0LatrlnqNyxyHXTMQN/t0DbTv9k6RbnYssWVx5/WiW9trJZNyErqytnpGOm3dRq3LhxYN8+7bTTZK0e4Y6V5uvSse2zCz2m+BGwm2lWd+6i3PaFcF3MXIntO2/nDLupFjrZZ6Hfi9BlyvLef4ywPO0miX3H3PHAWl/s+BDue2dlibS8lcH2m/T09MCjBPY9tRs1tp9b+tWrVw86BljQaYFNuO++pef2Gf++7gIjuy7wd/u3ZV3QV5yH1Ym1Xp1zzjnesdKCIRf8WTlsctccdh1kdenq0aW7c+dOLw3/Mc6OP3bs3bx5s1uMvwhEVYBugVHljM/E7IBjd5dcP2Urpd0RsoOLO0DZPDsougOTnTjchV+4rbJmdrtgcMvbQdcObuVNL1wesZjnP3iXJn+762+tbH4HszZzm/xdM+3OqC3vvztemjxYJvEFbH+yrkYuwLELCPsuWpBjFzp2MWCTfx+2ZxLchUZJQm7ftu+pdUf84osvAnnZ3XG7c2/52D/L078f2LHCPYti+dgdblcOK6+lVdx32oIu97yDy7+45f3bUpJLecrjT99a06zVbOLEid5fd2FYmmOmHR/ddlhXJXcM8KfvXruuhlZfCxYscLP5G2MB+75b0GD7gE1WhxbQuOO3K54FAqNGjfK+Jzboku17bl91y7i/ZfleuHVK89fys3xtsu+R3eBw36tw65e0vO3H1oLtJjvn281aC3ws/ccffzxwfLFzl/96INw2un3GtSyZpQVGfku3v9hnts+UZrJjjeVnk0vbXluwtHXrVq+MziNc9z9b1srvts3VuR3jLKhmQqAiBGi5qgjV/Zim/86WHWDCTXZAs4OI/3NrObFgyDW1h1sv0jw7ONnFlnUTdF2H3LLlSc+tu7//ugO9a8GKRv5m7D9guzv7bkQyC66YEDAB21dsH6xWrZq3P7kLPKfj37fD7cNuubL+jdSdydKxVjQLOKy7nuuyZ/P35aaAHS/83ZksveLK4LbHHWeKc3HLlvev3Qhxg2n40wjn7T9mumDRLrStK7O/y5Q/HXttLQHWKmABXGjXq9Bleb9/Bexm4OGHH17k+3700Ud7QYYLmEtbby7gKs33ojRb6o4RrqeDfY9CRwQuLp2yLG/nQTseuclajf3HANtXbIq0jbbPuCDUpWF/rbuvnRetF4wdB2w/cF2J/ctFeu3OqXbMcNcwFgBaHYVeg9hxys65rowuTXtvwZi19LlA0f4yIVBRAgRXFSW7n9K1JnE7INrdIXciCM3aDpruDrg7ONkytp5dwJV1cgc7u/PjLjL8adhFUWWY7GBrd9bMLVpldheEtv12kLcuT2PHjvXysBOCdZNgQsC+J3bH3PYha/mxgNwF+34dm28XVpH2Yf+y0XhtednzhtYaG3qBYunbBVdZJtvO0J8csAu+0kzuOFOcS2nSKc8ykbz9x0zzsX+2X1tXS5vCHQ9tvutSaV0szcMuNP3H4vKUkXX2XcDOm7b/ufqxFN13trhzanE5l+V7UVw6/mOEfVdsv7EAw5XVvkvFtVyVdXnbz1wLke3ndnxyXYPducyVN9w22j5TXNBk2+C6NFvZ7J/bFpduaf9a3ViwN3r06KD9yNK0z6x8oZO1zFn3QntOy533bd9lQqAiBOgWWBGq+zFNO2DZBZrdYbKDrX9yQ7HbHRq7G33xxRcHPrbXdiB1/ZUDH5Tyhd1Nds8PlXKVMi3m7hLbgdImOwhafuEmOwkNHz681Bd+bnlrfXPdm8KlaycLa3FyZbATjA3o4Z/scwvS3OSMrftC6F1HS8c91O+Wd3/tpBBaf+4z/iaWgH2Xhw0b5gVU7mLc9if7btl3zCb7jtozCq7bS7h92J6DsuXsgsvdPLF1bX6k71lJknY8sTwtb0t7X6fQUUBt2+2Oc2mnklxKSqe8+1U4b/8x0y4+XaBpxyp3Vz+0PGZ47bXXBiztmOKm8pbNrc/ffROwurH9JrRl1PYB63IXqYtZcblG+l7YfDtHlXafCj1G2Hp2vnLfH1f2SGUpzfLWyuS6G9vyts+7oMMCLX9vFzt3ud4XkbbR9hnbt91+4S+bbY9dj7jJtVzb8e7uu+/2zu/us9L8tbqxOrK68k9Wl/5jof8zu9axax5rqSxpADD/eva6rPUXuj7vq54ALVcJUOd2gWYHNrt7ak3ubrKRelxrlg244P/c383BDqwlTXbXx7o6uNECLU87ANvzCm5yabr3xf0NTc+dNNw6dtB8/fXXvTyt66FdvCxfvlwnnHCCWyTw1y7gbDKDSJOl4e/CWFw3HpeG2dkzGK6LlG2f5eHys+WsG4JdXDl3K6dZW/ktwLK7f9ZX3yZbP9xFmPnbQb+48rsy8bdyCrjvkJXevjPuRyvd1rggy7qY2T+b/CNt2XcxdB923W3sBoG1hrjvmXt2wqVd1r/2gLxd+Lv0bP3i7kj707dy2gWaG/XTWmjce5tn33//PmB3mO3mhH+0QH96Jbn4lw19vS/7VThvd3yzfdta/O146LpNWV25soYe2+x44Szd8cHKyj4fWmP7970FFnYTItxx1+bZTQp3s6O0JYv0vbAbZ+GCAX+6xR0j7DvnbqLacnYMsWcn/VPo966k5e37bAOxuO+w7eNuwCsLPvzXC7Y/WJ42RdpG+8yN8uvSdMc6C2ysxcidJ92+ZHVg6Vn6pZ2sTuzaw7Y3dLJ6s5uwlq7/+SxbzhlaYFZcfqFdG62sW7ZsKbH+QsvC+6otUC015ehf45ngsNop2rmr7F3X4nmb7BkLm+zvobUOi+eiVoqy2V0lO9i6E8P+KrTdjQsdGa08edvJwk4GDz/8cHlWr9TrfJ+zU7/+mn8Icn9jvUHsn7GugejkH8/7VTyXzemzbzqJfftrQb6NwmeDURR3Ub9vuVTOtW+44QYvCArXjS9etihe6y8e989o1lllv/YnuIrmt6GUaXHxVkqoOF8sWsFVnG9mhRYvHk8Q7J8VWuUkXkkE2DcrSUVRzCopEI/7ZzQrorIHVzxzFc1vA2khgAACCCCAAAIIIIBAlRXgmasqW/Vs+L4KWBePu+66a1+TYX0EEEAAAQQQQACBBBGg5SpBKpLNQAABBBBAAAEEEEAAgdgKEFzF1p/cEUAAAQQQQAABBBBAIEEECK4SpCLZDAQQQAABBBBAAAEEEIitAM9cxdZ/n3O336Oxyf9L5zaKnf1Ghf1Gk/vtFVvG/aK7f9l9KYA/PRuu1H5rx34jwk3utyzs9yWYEEAAAQQQiDeBcKO+2rnN/7uI/t+cs/LbUPr2O2fuh3VtXuhvJ9pPhNjvPYWua8vaedt+SLe0Px8S7vzqTzdced3v39nvXfmvAyz/cNts85kQQCA6AgRX0XGMWSr2i+T2Q7V28HVBjP2auv04ov1Ynv+gesQRR3gH9IosrP8EYycQC7jsh0Rd2Soy7/Km7Q8Sy5sG6yFQHgG+e+VRYx0EKk7A3bAcOHCgl4mdW7t06RLI0AVN/nOdu6Fp51z/zcsffvhBjRs39oKZ8v7GlQvkVqxYoZEjRwbKZD9ybGWz39CyKbS8ds61Hy626wP7QV3/OdiuEfLy8mQ/7rsvU1mDxH3Ji3URqEwCdAusTLUVpqz26+bJyck6/vjjA5/aAX7nzp3efDv42mQH/5SUlLC/Rh9YMcov7EcTbapVq1aUUyY5BBBAAAEEoitg50s7n9pNSzdZUOLOZXYe7dy5c5FWKgucJkyY4J1jLRhyU25uruyfBULlmSy/nj17avbs2UGtXFamxx9/3EuyuPKuWbOmyPWBrWTXCBZ4+QOu8pSPdRBAILwALVfhXSrNXLvzZAdvC5xsspNDUlKS3n33XZ111lle0GW/fh56p8rdfXMbumHDhsAdNzugDxgwQJs2bdKpp54q95l/nf/973/avHmzWz3s37S0NK8s9mFp0vzpp580bdo0uV9r93d1sPzs5GUnMbtb1qhRIy/P0nY9tPytq6S16NnkulT405o4cWLgpGmO/m6Opc3HS5z/EPAJ8N3zYfASgTgWsGDDzqehvT5cke08auciawkKnezcZDc7bRl3DrNlXnrpJfXt21d2/vT3JAldP9z74vKz5Usqr7s+8JfJjkd2vWDXCKWZwp2Hc3JyAudHOxdnZGQEzt2upc11mXTn2tLkxTIIJIoAwVUlr0k7uNodKHcycC1YdvC3eS7oskDHThq2vB3ku3XrpqlTp3onARdI2EHU9QG3A6O1OLmuBraO3bEbM2aMF+C4A+gXX3wRUdCCOzvZ2EnHDuglpWl5nH/++V5XBdsO607h8jvttNO8fGwZu1N35513etvSvn37iPm7D9zFrXsGzd5b8GjbYF04bLuty6TrzuE8zNV1wyjvnUdXBv5WTQG+e1Wz3tnqyivw5JNPeoGD/2ab2xr/edTN8/+156jsXOKftm3b5j3/bOdPa0my82Fpp5Lys3SKK6+7PmjYsGHg0YFOnTqVukugnRttXXe+tfd2LrRzpZ0bQ7sF2jnVPnc3Se34587dpd1mlkMgEQToFpgAtWgHbAui7EBmd6isL7UdVO1AbwGWBQt2gHRdHWye9d92d9dsWXvo1R2AjcRakfx3tmydjz/+OHBisHUtjdDJHuC1k5L9s8kFLPa6pDQtILSyuwDRWuDs5GLThx9+GMjbWp9cV8MFCxZ42+otFOG/0Lt/dnJbt26dZxVuldatW3uz7YFgN1m3EHNiQqAsAnz3yqLFsgjEXsCO8xY42I09C4juvfde79y6LyWzFquvvvpKFthEeyqpvP6uge5awM73JZ3Pwi07b9487+amXWuEm+yGql1nuGsLO9fas2lMCFQ1AVquEqDGs7Ozva2wQMTumrkgyg6ql1xyiX772996n9t7O2CG9tG2D62FyYIZF7T4WSKt41/GvfY/5Ovmhfvr0rQuBf5RmWxZCxRd9wkbkalPnz6B7npu/u233+4Fa+4OWbg83DxzsVEMR40a5WZ5f627Y7ipNHcLw63HPARCBfjuhYrwHoH4E7Cbeu486kpngcFtt93m9Wzo16+fNzCTLeNuQoYLToobNMpuVlqrjrXulHYqKT9/OuHKa2W0QMeCHrvRY5Od5+1aoKTJrgXsRqbdMLV/brKbpHZcs/z8kzunu+sP/2e8RqCqCRBcJUCN20HOgiNrcbHAyR043cmiRYsW3lZaP2k72Fr3QDs4hk4235YJDbAirRPa/SE0veLeuzTDDRPr1rOTgv1zXatsvgVX7p/rgmDz3Z0yt67/rzm458b88yO9LssJLVIazEfABPju8T1AIL4F7FxoAUekyc6n1kXdzov22v8ss38dO08V9yyTnaMswLGu7xbMlWYqLr9I6/vLa+dZmyzgsVEDq1evHuiqH2l9N9+uBb777jvNmDGj2POrW96d08NdW7hl+ItAVRGgW2CC1LQdPE888URva+ygaJMLuho0aBA0MpAtaw+gujtodsfJDvhbt26N2FXAuhiedNJJge4Rtu6xxx67T3pWDut2Ea6LgT1bZf9ssu2xh4ht8t/5swtXd5KyZYcPH+61zHkL+v6zk83RRx8dSM/3UdiXtrzdsbv44osDn1u+tr2Wh/U7Z0KgNAJ890qjxDIIxE7AAh73bLCdC6+99tqg84h9bucZOw/ZOdVaoKxHhTt/WsndDUDrbl7cjT7X1dx/zivu3GX5WZrWe8OdDy0/V047JxVXXqfqzmk2QJWdd/2TPTcV7pxmwZJdE9i1geVXmin02sK201q9rOzR6F5ZmjKwDALxIEDLVTzUQhTKYCcHa64PHV7VDnY2eIUdXN3kutbZAdv+2VTSiD420IUdgK07nk02ep6lGdrK5X1Yyv+sHHaXy6Xp0rXfxbLtsROY645g5bPl7SDtL7d1Q7STmZUtdNtdMewEZXff/OmZletSaP3IbSRB/wPMNjKhm2fpWMvX999/75LkLwKlEuC7VyomFkJgvwvYOcO6pLuRYK0AFlDYOc3fhdx97lqB7Dzkzk/u/GnrlqZLvKXx+uuve+cit8F2Dox07rJl7Nxr51r/+cvlZwNKlVReW9aOQ/bMl91k9F8LWNBUXDdBy9uCL7+HvxeICzTdaIHhri145srVNH+rkkC11JSjf43nDT6sdop27toRz0Usc9mqVavmrWN/D611WJnXZ4VgATtB2A8p2qATdhJhqjwC3+fs1K+/5h+C3N9Yl579M9Y1QP7xIMC+WfG1EOtzl7W+2eMEDz/8cMVvLDlEVSAe989obmBlv/YnuIrmt6GUaXHxVkooFkt4gXg8QbB/JvzXjg0shQD7ZimQWASBGAnE4/4ZTYrKHlzxzFU0vw2khQACCCCAAAIIIIAAAlVWgOCqylY9G44AAggggAACCCCAAALRFCC4iqYmaSGAAAIIIIAAAggggECVFSC4qrJVz4YjgAACCCCAAAIIIIBANAUIrqKpSVoIIIAAAggggAACCCBQZQUIrqps1bPhCCCAAAIIIPD/7N0LfBTlvf/x70Ik4ZqQWKJYQEVivaC0iNWqLRa0tsDpEVvrpRcvLV56+R/r6c22am1rb0ftqedotUdr67Wegu1BrVWstOClAopgpYKogFzlFiCQALL/12+S2ewmm2R3M5udZ+YzvmJmZ2eeeZ73b/Lw/PLMThBAAAEEghQguQpSk7IQQAABBBBAAAEEEEAgtgIkV7ENPQ1HAAEEEEAAAQQQQACBIAVIroLUpCwEEEAAAQQQQAABBBCIrQDJVWxDT8MRQAABBBBAAAEEEEAgSAGSqyA1cy0rmeuO7IdATATC9DMRprrEJPw0M8QCYfp5CFNdQhwyqhYjAX4mQhlskqsShyWZ5CejxCHg9CUScOHad6GOJQofp42wgAvXvQt1jPAlQtNKKMC1X0L8HE9NcpUjVJC7padTTbsbxQ9KkLqU5YJ8R+lmAAAgAElEQVSAXfN27ftL+s+Ev61U39Prws9nqaLAeUslwM9mqeQ5LwJdC4T557Pr2sdnj7L4NDVMLbXhW0LJfdLu3bu1Z88eJax6Ce//YaoodUEgeIFkUvYTYP9I2M9A88WfntIEf8r8SuTnMz8v9o6MAD+bkQklDYmgQOh/PiNoXmCTSK4KhAvksERSqbsCLa9qHWkGUjyFIBA+gZbEJdmcXCkRpqSqjRY/n21AeBltAX42ox1fWue2gEM/n25DB1J7kqtAGPMvxH5rn/Bmquy390klU5NWIR5s5t9MjkAgi4BlVv6MVUuSlWWvUm7i57OU+py7dAL8bJbOnjMj0JVA+H8+u2pBXN7nM1cljLQN4LwllViVsDKcGoGeFGi55lM/Az157hzPlaobP585irFbJAT42YxEGGlERAUc+PmMqHxezWLmKi+u4HdODeCUaPncVfDnoEQEQiPQ8ou35qmr0NSqw4rw89khDW9ETYCfzahFlPZEScCxn88o0RfSFpKrQtSKckzzh/y926WKUj6FIoBA4QL8fBZux5EIFFOAn81i6lI2AgjkL8BtgfmbcQQCCCCAAAIIIIAAAggg0E6A5KodCRsQQAABBBBAAAEEEEAAgfwFSK7yN+MIBBBAAAEEEEAAAQQQQKCdAMlVOxI2IIAAAggggAACCCCAAAL5C5Bc5W/GEQgggAACCCCAAAIIIIBAOwGSq3YkbEAAAQQQQAABBBBAAAEE8hcgucrfjCMQQAABBBBAAAEEEEAAgXYCJFftSNiAAAIIIIAAAggggAACCOQvQHKVvxlHIIAAAggggAACCCCAAALtBEiu2pGwAQEEEEAAAQQQQAABBBDIX4DkKn8zjkAAAQQQQAABBBBAAAEE2gmQXLUjYQMCCCCAAAIIIIAAAgggkL8AyVX+ZhyBAAIIIIAAAggggAACCLQTILlqR8IGBBBAAAEEEEAAAQQQQCB/AZKr/M04AgEEEEAAAQQQQAABBBBoJ0By1Y6EDQgggAACCCCAAAIIIIBA/gIkV/mbcQQCCCCAAAIIIIAAAggg0E6A5KodCRsQQAABBBBAAAEEEEAAgfwFSK7yN+MIBBBAAAEEEEAAAQQQQKCdAMlVOxI2IIAAAggggAACCCCAAAL5C5Bc5W/GEQgggAACCCCAAAIIIIBAOwGSq3YkbEAAAQQQQAABBBBAAAEE8hcgucrfjCMQQAABBBBAAAEEEEAAgXYCJFftSNiAAAIIIIAAAggggAACCOQvQHKVvxlHIIAAAggggAACCCCAAALtBEiu2pGwAQEEEEAAAQQQQAABBBDIX4DkKn8zjkAAAQQQQAABBBBAAAEE2gmEPrlKJpNKJBLtKs4GBBBAAAEEEEAAAQQQiI6Ajflt7O/yEvrkau/ePeqzXx+Xjak7AggggAACCCCAAAIIdCFgY34b+7u8hD65amxqVEVFP5X3KWcGy+UrjbojgAACCCCAAAIIIJBFwGasbKxvY34b+7u8JGqqa0M/99a7d5kqyitUVrYfCZbLVxt1RwABBBBAAAEEEECgjYDdCmgzVpZYvfPO3jbvuvWyzIXqGnLDzh0uVJU6IoAAAggggAACCCCAQEwFnEiuYhobmo0AAgjEUmBI/2GaevilXttnvPpLbWhYFUsHGo0AAggg4J5A6D9z5R4pNUYAAQQQ6I5AXfWxqiyv8b5snQUBBBBAAAFXBEiuXIkU9UQAAQRiIrC+4a1US9PXUxtZQQABBBBAIKQCTjzQIqR2VAsBBBBAoEgCo6rHeCUv27ywSGegWAQQQAABBIIXILkK3pQSEUAAAQQQQAABBBBAIIYC3BYYw6DTZAQQQAABBBBAAAEEEAhegOQqeFNKRAABBBBAAAEEEEAAgRgKkFzFMOg0GQEEEEAAAQQQQAABBIIXILkK3pQSEUAAAQQQQAABBBBAIIYCJFcxDDpNRgABBBBAAAEEEEAAgeAFyoIvkhIRQAABBBAoXKC8rJ9GDW7+48HLtrykpr07Cy+MIxFAAAEEEOhBAWauehCbUyGAAAIIdC1QN/hYTTrsc96XrbMggAACCCDgigDJlSuRop4IIIBATARs5spf0tf9bXxHAAEEEEAgrAIkV2GNDPVCAAEEYiqwbPNCbWh4y/uydRYEEEAAAQRcEUjUVNcmXaks9UQAAQQQQAABBBBAAAEEwirAzFVYI0O9EEAAAQQQQAABBBBAwCkBkiunwkVlEUAAAQQQQAABBBBAIKwCJFdhjQz1QgABBBBAAAEEEEAAAacESK6cCheVRQABBBBAAAEEEEAAgbAKkFyFNTLUCwEEEEAAAQQQQAABBJwSILlyKlxUFgEEEEAAAQQQQAABBMIqUBbWilEvBBBAAIF4CgzpP0xTD7/Ua/yMV3+pDQ2r4glBqxFAAAEEnBNg5sq5kFFhBBBAINoCddXHqrK8xvuydRYEEEAAAQRcESC5ciVS1BMBBBCIicD6hrdSLU1fT21kBQEEEEAAgZAKJGqqa5MhrRvVQgABBBCIqcCo6jFey5dtXhhTAZqNAAIIIOCiAMmVi1GjzggggAACCCCAAAIIIBA6AW4LDF1IqBACCCCAAAIIIIAAAgi4KEBy5WLUqDMCCCCAAAIIIIAAAgiEToDkKnQhoUIIIIAAAggggAACCCDgogDJlYtRo84IIIAAAggggAACCCAQOgGSq9CFhAohgAACCCCAAAIIIICAiwIkVy5GjTojgAACCCCAAAIIIIBA6ARIrkIXEiqEAAIIIIAAAggggAACLgqUuVhp6owAAgggUHyBc47ape9+cIdq+u4r/slCcoZNu3rp+38boAf+0TckNaIaCCCAAAIuCTBz5VK0qCsCCCDQgwJxS6yM1hJJazcLAggggAAChQiQXBWixjEIIIBADATiNGOVHs64tjvdgHUEEEAAgcIESK4Kc+MoBBBAAAEEEEAAAQQQQCBDgOQqg4MXCCCAAAIIIIAAAggggEBhAiRXhblxFAIIIIAAAggggAACCCCQIUBylcHBCwQQQAABBBBAAAEEEECgMAGSq8LcOAoBBBBAAAEEEEAAAQQQyBAgucrg4AUCCCCAAAIIIIAAAgggUJgAyVVhbhyFAAIIIIAAAggggAACCGQIkFxlcPACAQQQQAABBBBAAAEEEChMgOSqMDeOQgABBBBAAAEEEEAAAQQyBEiuMjh4gQACCCDQHYH7H5BG3ymN/rF0ygxp4e42pa2S9nuqzTZJzz0l/WhV2vYs+1nZ929L26dl1T/n6TdL+90kTXtK+mdj+/3YggACCCCAQLEFyop9AspHAAEEEIiXwFWfkM4dJL25UDrtr9Li06SKIhP459Q+aeHL0hd+I/3sQumEPkU+McUjgAACCCCQJsDMVRoGqwgggAACwQkcfKj03k3S1uCK7LqkXtKYY6S7T5Q+81eJCayuydgDAQQQQCA4AZKr4CwpCQEEEEAgTeDN16Wtw6UD0rb11OrBR0pn/lV6dm9PnZHzIIAAAgggIJFccRUggAACCAQq8NmfSvt9Rxr1e2nMoBLNHpVJgyWt2xlo0ygMAQQQQACBTgVIrjrl4U0EEEAAgXwFfvt1ac8PpD3XSaeulr7+z3xLCGD/vdIWSYcMCqAsikAAAQQQQCBHAZKrHKHYDQEEEEAgT4Fe0kePlG5dm3ZcP+nUtdKbaZtsdct2qSLARyy9+Yr00IekMW3Ow0sEEEAAAQSKKUByVUxdykYAAQRiLvDUUunMmjSEGuncvdKdS1u3bX1dun6tdOqBrdsKXrOnBS6Sps2X7v5Q8Z9SWHA9ORABBBBAIJICAf6esHg+vXuXaUDfSiV62zmSxTsRJSOAAAIIpAmsT1vPffX630u/lrRkg3TqSdLtx2Qee+HZ0q8fl0bNaN5+xJHSzz6T2yyTfZ7rs3bY0dKqc1ofluGds0FaIunMcdJvL5AO6MavD6sqqzMrzSsEEEAAgSIKJJR8R9qxq17vvOP2k4gSNdW1oc5WLLEaOKBSw/qMU3XZIeqV2K+IgaVoBBAohUB9Y48+rLsUTXTynI9e8DMn6x1EpT9219eCKIYy8hSorKjK8wh2RwCBKAjsS+7R5r1vaNXuedq+w+0Eqxu/1+uZUNqMlSVW++9XR2LVM+ScBYEeF2BA1ePknBCBUArwi5ZQhoVKIVB0AZs8sbG+jflt7O/yEvrkym4FtBkrFgQQiLYACVa040vrEMhVgAQrVyn2QyB6Ajbmb/4YkLttC31yZZ+x4lZAdy8wao5APgIkWPlosS8C0RUgwYpubGkZAp0JNI/5Q/2Jpc6q773nQHLVZRvYAQEEIiRAghWhYNIUBLohQILVDTwORQCBkgmQXJWMnhMjgEBHAiRYHcmwHYF4CZBgxSvetBaBKAiQXEUhirQBgQgKkGBFMKg0CYECBEiwCkDjEAQQKJkAyVXJ6DkxAgh0JUCC1ZUQ7yMQDwESrHjEmVYiEAUBkqsoRJE2IBBhARKsCAeXpiGQhwAJVh5Y7IoAAiUTILkqGT0nRgCBXAVIsHKVYj8Eoi1AghXt+NI6BKIg4ERyRWcahUuNNiDQPQESrO75FXJ0fWPfQg5z/pi4ttuVwDEmcCVS1BOBeAo4kVxZaOhM43mB0moE0gVIsNI1ir9+5/zxiluiYe21drOEW4AxQbjjQ+0QiLNAmUuNt86UwZVLEaOuCAQvYH0AA6vgXbOV+MRrR8u+enoZWjlERx1wmHfaf6x7TWvqN/R0FTifAwKMCRwIElVEIIYCzsxc+bFhUOVL8B2B+ArwS5Zox76sV+9UA9PXUxtZQaBFgDEBlwICCIRNwLnkygDpTMN2GVEfBHpegASr58176oxv79is7U0N3petsyDQmQBjgs50eA8BBHpawKnbAtNxrDNlcJUuwjoC8RPgFsFoxnzXniY99+ZL0WwcrSqKAGOCorBSKAIIFCDg5MyV305+W+VL8B2B+ArwS5b4xp6WI5AuwJggXYN1BBAolYDTyZWh0ZmW6tLhvAiER4AEKzyxoCYIlFKAMUEp9Tk3AgiYgPPJlTWCzpSLGQEESLC4BhBAwAQYE3AdIIBAKQUikVwZIJ1pKS8jzo1AOARIsMIRB2qBQKkFGBOUOgKcH4H4CkQmubIQ0pnG90Km5Qj4AiRYvgTfEYi3AGOCeMef1iNQKoFIJVeGSGdaqkuJ8yIQHgESrPDEgpogUEoBxgSl1OfcCMRTIHLJlYWRzjSeFzOtRiBdgAQrXcOt9YHl/XXyoWO9L1tnQaA7AowJuqPHsQggkK9AJJMrQ6AzzfdSYH8EoidAguVmTIcMrFbf/cq9L1tnQaC7AowJuivI8QggkKtAZJMrA6AzzfUyYD8EoitAguVebLc3NqQqnb6e2sgKAgUIMCYoAI1DEEAgb4FIJ1emQWea9zXBAQhEToAEy62QbtixWS+t/qf3ZessCAQlwJggKEnKQQCBjgQin1xZw+lMOwo/2xGIjwAJlluxtqSKxMqtmLlSW8YErkSKeiLgpkAskisLDZ2pmxcotUYgSAESrCA1KQsBdwUYE7gbO2qOQNgFYpNcWSDoTMN+OVI/BIovQIJVfGPOgIALAowJXIgSdUTAPYEy96rcvRpbZ8rgqnuGHI2A6wLWB4RxYJVUsoU2oYStef9zXZv6FyyQVMsV0XxdtFwVBRfHge0FGBO0N2ELAgh0TyB2yZVx0Zl276LhaASiIBC2BMsSqzPOGqeLv/4xVVUPiAIxbQhIYOvmHbrjp4/qsenzRIIVEGpaMYwJ0jBYRQCBbgvE6rbAdK0w/tY6vX6sI4BA8QXCMottiZVNUpFYFT/mLp7Bkm27NuwaaZ3ddLEl4a0zY4LwxoaaIeCaQGyTKwsUnalrlyv1RSB4gTAkWIlEQkokmbEKPryRKdGbzUwk5V0rkWlVuBrCmCBc8aA2CLgqEOvkyoJGZ+rqpUu9EQhOoOQJVtI+XON/3iq4dlFSxAS4TooeUMYERSfmBAhEXiD2yZVFmM408tc5DUSgS4FSJVh+SpXk4RVdxijuO/jXiH/NxN2jWO1nTFAsWcpFIB4CJFctcaYzjccFTysR6EygFAkWOVVnEeG9bAJcM9lUgt3GmCBYT0pDIE4CJFdp0aYzTcNgFYGYCpQiwYopNc1GINQCjAlCHR4qh0BoBUiu2oSGzrQNCC8RiKFAjyZYTEPE8ArrZpO5ZroJmPvhjAlyt2JPBBBoFiC5ynIl0JlmQWETAjET6NEEK2a2NBcBlwQYE7gULeqKQOkFSK46iAGdaQcwbEYgRgIkWDEKNk1FoBMBxgSd4PAWAghkCJBcZXBkvqAzzfTgFQJxFCDBimPUaTMC7QUYE7Q3YQsCCLQXILlqb5Kxhc40g4MXCMRSgAQrlmGn0Qi0E2BM0I6EDQgg0EaA5KoNSLaXdKbZVNiGQLwESLDiFW9ai0BHAowJOpJhOwIImADJVY7XAZ1pjlDshkCEBUiwIhxcmoZAHgKMCfLAYlcEYiZAcpVHwOlM88BiVwQiKkCCFdHA0iwE8hRgTJAnGLsjEBMBkqs8A01nmicYuyMQQQESrAgGlSYhUIAAY4IC0DgEgYgLkFwVEGA60wLQOASBiAmQYEUsoDQHgQIFGBMUCMdhCERUgOSqwMDSmRYIx2EIREiABCtCwaQpCHRDgDFBN/A4FIGICZBcdSOgdKbdwONQBCIiQIIVkUDSDAS6KcCYoJuAHI5ARARIrroZSDrTbgJyOAIRECDBikAQaQICAQgwJggAkSIQcFygzPH6h6L61pkyuApFKKgEAiUTsD6AgVVh/FvWN2jpC2u14pW3tWntdm1as937bqXVHDhQNUMHet9HHPku1b3vQA2u7V/YiTgKgR4QYEzQA8icAoEQC5BcBRQcOtOAICkGAYcFSLByD96a17fo6T/+U8tfWq83Xt7Q4YE7t2/SqqWbMt4/5OghGnlsrU76+Hs09NDBGe/xAoEwCDAmCEMUqAMCpREguQrQnc40QEyKQsBRARKszgO3q2G3nrx3sWbdu1i2XshiyZh9Pf2HVzXx/NGacP5o9e3fp5CiOAaBogkwJigaLQUjEGoBkquAw0NnGjAoxSHgoAAJVvagPfvwUj3+25dks1ZBLJaczbx9gRbMel2nf/ZYnTi5LohiKQOBwAQYEwRGSUEIOCNAclWEUNGZFgGVIhFwTIAEKzNgd31vtp6duTRzY9qr3vv10pHvf7d3u9+g6n4aVNNX7+zZp7dXb9PG1dv09urt+sczq9KOaF21ZO2ua2fr1QVrdME141vfYA2BEAgwJghBEKgCAj0oQHJVJGw60yLBUiwCDgmQYDUH66op96ceUNE2fKNPHq6xEw/VMaeMUP/K8rZvZ7ze0/SOXnzqDb3wlzf04l/eyHjPXljytnT+Wl0/89x277EBgVIKMCYopT7nRqBnBUiuiuhNZ1pEXIpGwBGBuCdY139mRtbE6sgT3q2PXzZOBx/1rpwjuV95bx1/xmHe19IFazTz9hdk39MXe9qgnfOqu6emb2YdgZILMCYoeQioAAI9IkByVWRmOtMiA1M8Ag4IxDXBeuyuhVqxZGO7CJ3+mWN01v87IWN7/caden3xetlj2Tev2+HdDmi3BQ4YXKEBgyo0ZPggnTCpTn0qmv/Zqhs7VFfeNlQP377A+9xVemF2Tjv3GReMSd/MOgIlF2BMUPIQUAEEii5AclV0Ynl/+8YGVywIIBBfgbglWM8/9poe+q/n2wX8k189URPPG53abknVnBlL9LcZS2TrnS32hMETJtfp1E8dlXo64ORpYzVkeKXu+M5fMg61c1cfMMCb5cp4gxcIlFiABKvEAeD0CBRZgOSqyMB+8XSmvgTfEYivQFwSLHuK35/ufLFdoL9w/QQdd/rI1HabdcolqfIPWL+yXn+8ZZ4Wzn5T/3rZOB154ru9t+xWwcaG3br3R3P9Xb3vVofRpwxPJWIZb/ICgRIKMCYoIT6nRqDIAr2KXD7FpwlYZ8qCAALxFojDLLb9Hau2j1ufcO7odomVPUa9q9mqbFfLilfe1n9++VHvlkD//Q+edaQ+fvk4/6X33epgdWFBIIwCjAnCGBXqhED3BUiuum+YVwl0pnlxsTMCkRSIcoJlCY3dvpe+DKurkd2+5y/ZPiflv5fPd0vO/vK7l71D7PNacx9a0u5wq0vbRK/dTmxAoEQCjAlKBM9pESiiAMlVEXE7KprOtCMZtiMQH4GoJlhzH/qn7LbA9GXC+aPVb2Afb9Nfp7/S7gEU6fvmu/67nz3j/RHhX3z5T9q0dke7w60uVicWBMIqwJggrJGhXggUJkByVZhbt4+iM+02IQUg4LxAZUWl821o24C2j0Y/6gPDdOKkutRus3/3j9R6UCu3f3OWdu3ITOjSy25bp/T3WEcgDAKMCcIQBeqAQDACJFfBOBZUCp1pQWwchECkBKI0g7VpzXatWropIz7vm3BI6vXs/32lJLfoWZ2sbiwIhFmAMUGYo0PdEMhdgOQqd6ui7ElnWhRWCkXAKYFBEZnBWvrC2nbux3/ksNS2P/9mYWq9p1ey1a2n68D5EOhKgDFBV0K8j0D4BUiuQhAjOtMQBIEqIFBigSgkWKtezZy1Gnb4/qk/+mu8F35vfMmU29atZBXhxAh0IcCYoAsg3kYg5AIkVyEJEJ1pSAJBNRBAoGCBTWszb71b9epG2eeh/KVu7FBdedtk/2WPfm9btx49OSdDIE8BxgR5grE7AiESILkKUTDoTEMUDKqCAAJ5C2T7XNOCWa+HIsHKVre8G8gBCPSgAGOCHsTmVAgEKEByFSBmEEXRmQahSBkIIFAKgY5mh8KQYHVUt1I4cU4EchVgTJCrFPshEB6BsvBUhZr4AtaZRukJYn67+I4AAvESmDJtbOpvWvkJ1rQfT/QQ/FsEb7jk4bxQ/OO6OmjJ39/Sz7/4aFe78T4CoRdgTBD6EFFBBDIEmLnK4AjPC35bFZ5YUBMEEMhNoObAgRk79qkokyVY/uInWP7rXBMlf/98vm/btCtj97Z1y3iTFwiEXIAxQcgDRPUQSBMguUrDCNsqnWnYIkJ9EECgM4GaoZnJ1Zo3tmjytLGBJ1j2R4E7+vLrt2VDg7/qfW9bt4w3eYGAAwKMCRwIElVEQBK3BYb8MrDOlFsEQx4kqocAAp5A29mht1oezW4Jli0zb1/gffdnsAq5RdCSqhsuWeOV0/Z/l91wemrTawvXpdZtpW3dMt7kBQKOCDAmcCRQVDPWAsxcORB+flvlQJCoIgIIaMSR78pQWLV0k/wZpGLMYKWfrOpd/XXk+9/tbWqob9Irf38r/e12dct4kxcIOCTAmMChYFHVWAqQXDkSdjpTRwJFNRGIsUDd+w5s1/p/zlud2lbMBOs944am/mDxojkr9M6efanz2kq2umXswAsEHBJgTOBQsKhq7ARIrhwKOZ2pQ8GiqgjEUGBwbX8dcvSQjJbP//PyjNfFSLB6l/XSyWe+J3Ueu+0wfbE6Wd1YEIiSAGOCKEWTtkRJgOTKsWjSmToWMKqLQMwERh5bm9Hil59Zpb//6bWMbUEnWOd942SNem/zrNmb/3hbi+euzDhf2zplvMkLBBwWYEzgcPCoemQFSK4cDC2dqYNBo8oIxETgpI+/R33798lo7VO/eznjtb0IKsGyR72nz1r98dZ5GeeyulidWBCIqgBjgqhGlna5KkBy5Wjk6EwdDRzVRiDiAkMPHayJ54/OaOUbL2/Q7d+clbHNXnQ3wTrvmyd7ZfgFT//P5/TKc5kPsrC6WJ1YEIiyAGOCKEeXtrkmQHLlWsTS6ktnmobBKgIIhEZgQpaExj4Hddf3ZrerYyEJln3G6uOXj9OHPnFkqrxZ9y3W43cvSr22FUuqrC4sCMRBgDFBHKJMG10QILlyIUqd1JHOtBMc3kIAgZII2K14p3/22HbnfnbmUj3c8reu0t/MNcGq3L+fPnbRe/W96Wd73/0y5j++XP9747P+y9R3q0PbWxRTb7KCQAQFGBNEMKg0yTmB3v36Drg2zLWuqOirwb3qwlzFktetaW+jKsoqSl4PKoAAAgUIJBKSklIiqU9d9qECCgjnIcPqarRp7Xa9tXRTRgWXLlirXTt266gTh2Vsrxs7VCZh79uy9vUt3tfYiYd6r2uGDtRpnz5G7xl3kPoPKve27dy+Ww/91/P6/X8+571O/9+JU+pkn8eK0nL3zY8rYUreNROlltGWIAUYEwSpSVmlEFi3Z5Eam3aV4tSBnJOZq0AYS18Iv60qfQyoAQIIZApccM141Rw4MHOjpCfvW6wfX/CHvJ8imF7Qs48s1Y2XzNST9y9O3+yt2znt3CwIxFWAMUFcI0+7wyDAzFUYohBQHfhtVUCQFINATwpEdObKJ5xw3mgtnrNC9Rt3+pu871s3NOjFp97Qmy9v0J7d73izUf0GlquzGazdjXtlSdUfbpmnJ+5epG2b2v9mc8QR++va/z0741xRecHMVVQi2TPtYEzQM86cJXgB12euEjXVtcngWYIrsaqyWof2nhxcgTEoqbKiKgatpIkIREHAbgdMKJncp2Rin6YvujoKjcrahsfuWujdwpf1zZaNBx1WreFH7K+hhwyWJVIz0z6fNezw/bXq1Y2dHa4zv3S8zrhgTKf7uPzmaXVXKpHs1XxbYKj/5XZZOXp1Z0wQvZhGvUUvNtyjrfWbnW1mmbM1p+IdCtjtAHSmHfLwBgIIlEDAkp7qAwboT3e+qDWvb8lag9WvbZZ9ZVs6S6zsqYAfvei9Ov6Mw7IdyjYEYi3AmCDW4afxJRAguSoBek+cks60J5Q5BwII5CNgyc/oU4bryXsXa9a9i7WrYXc+h7fb154EaH/Hyh63zlMB2/GwAYGUAGOCFAUrCBRdgOSq6MSlOwGdaensOTMCCGQXsCTIHr3+vomHau5D/9TSBWu0qs0TBbMf2brVnkRon806+cz38AeCW1lYQ8sueAIAACAASURBVKBTAcYEnfLwJgKBCZBcBUYZzoLoTMMZF2qFQNwF7Fa+s6880WPYtGa7lr6wVqte3eQ9vt1e22PcbbEn/9lj2O37sMNrVPe+A73Xcfej/QgUIsCYoBA1jkEgPwGSq/y8nNybztTJsFFpBGIjYMnTifbFs4tiE3MaWjoBxgSls+fM8RDg71zFI86yzpQFAQQQQAABBBBgTMA1gEDxBEiuimcbupLpTEMXEiqEAAIIIIBASQQYE5SEnZPGQIDkKgZBTm8inWm6BusIIIAAAgjEV4AxQXxjT8uLJ0ByVTzb0JZMZxra0FAxBBBAAAEEelSAMUGPcnOyGAiQXMUgyNmaSGeaTYVtCCCAAAIIxE+AMUH8Yk6LiydAclU829CXTGca+hBRQQQQQAABBHpEgDFBjzBzkhgIkFzFIMidNZHOtDMd3kMAAQQQQCA+AowJ4hNrWlo8AZKr4tk6UzKdqTOhoqIIIIAAAggUVYAxQVF5KTwGAiRXMQhyLk2kM81FiX0QQAABBBCIvgBjgujHmBYWT4Dkqni2zpVMZ+pcyKgwAggggAACRRFgTFAUVgqNgQDJVQyCnE8T6Uzz0WJfBBAIi8DLi/+hJ2f9pV11Otrebkc2IIBAOwHGBO1I2IBAlwIkV10SxW8HOtP4xZwWI4AAAgggkE2AMUE2FbYh0LFAWcdv8U6cBawzrayoijMBbUcAgRaBpsYmzZj+kIaPGK6H/+8Rb+vE0ydowsQPe+s2YzTr8Se99REHj9CFF31OGzZs0Lx5CzT1rH/VtvptuvOOu3TWJ87UsOHDNGP6HzRu3FgNGTJEv77zN1rx5gpVVVXpsi9eovLycu9c5RUVWvzSYl30+QtUWVmpW//7Nm3dulV++eUV5d5MlX/eY44drSG1Q1pqnPnN6v/LW27POM+8efO9ndLbYBv815kl8AqBeAswJoh3/Gl9fgIkV/l5xWpvOtNYhZvGItCpQH39Nq1csVI/+ukPU8lSXd0o2fZlS1/TtdddLUt47r/3Ac2d+7TGjTtOG9Zv8PZduXKV1q9b7+1bWb9NTY2NXmL1yCN/0qTJH/USrlUrV2nWrL9o0qSPevuNqh2ia677rvzEzhKvQZWDZLf5Wfl27sWLXta3vv0Nb7udt6Nl3vPzvSTNEjtLBB95+FFNmvwx77uVb4vV1baxIIBAdgHGBNld2IpAWwGSq7YivM4QoDPN4OAFArEVqKwclEo+LMmprR3iJUGLFy3Wyaec5CVWhmPrNmNl+9hMUn19vfc1+V8maenSZbJybFaqqalJy15dpnl/n5cytVkp2277WHJmi82ALX11mRa99JPUfjZLZcvoY472ztO8Plrr169P7ZO+cvIHT/ISONtmSZklcjZDZvWw8m2xdaszCwIIdCzAmKBjG95BwBcgufIl+N6hAJ1phzS8gQACnQj4s0u2iyVd9Vuf9mabbLstlVWV3q2A6UmNP5OUXuyIg4fr3PPOSSVw9l62h1ekH5PLutXDEj5b/Drlchz7IBBnAcYEcY4+bc9FgAda5KLEPrLOlAUBBOIr4N0WuHKVB2AzP+vXb9Dw4cM0+pjRmjvnae/2PXvT1m3myRb7vvTVpWpsavJmhey73SJox9nMkS3+Z5+8F1n+Z5+3Wr9ug5Ytey3j3draWu92RD8Zsxm0jha7bdHfz+pntwfaLYxWD2uLfdk6CwII5CbAmCA3J/aKpwAzV/GMe0Gt5rdVBbFxEAKRELBEyRKTe+++TxUVFd5nmGzG6ejRR8kSm2uvvs5rp92y5z8Uwh5YUdG3b2pWyGaH7LNNzbfkleu888/xHlThP5TCHpJx8sknZXjZOc779Dm683/u8s5tb57/mfOynjfjwLQXFRXl+vH1P1VjY6PS62dlW13s9sX02bO0Q1lFAIEOBBgTdADD5tgLJGqqa5NhVqiqrNahvSeHuYqxqxtPEYxdyGlw0QSSUiKhZHKfkol9mr7o6qKdqTsF26yPPS3QHvgQpSTE2nX/fQ94yaDNZoV9Oa3uSiWSvbxrRqH+lzvsktQvSAHGBEFqUpYJvNhwj7bWb3YWg9sCnQ1d6SrO7QCls+fMCCAQjIB9Zstm2yypciGxCqbVlIJA8AKMCYI3pUS3Bbgt0O34laz23A5QMnpOjECPC9jnk849/5weP28xT2i3Lvq3LxbzPJSNQBwEGBPEIcq0MVcBZq5ylWK/dgL8tqodCRsQQAABBBCIpQBjgliGnUZnESC5yoLCptwF6Exzt2JPBBBAAAEEoizAmCDK0aVtuQqQXOUqxX4dCtCZdkjDGwgggAACCMRKgDFBrMJNY7MIkFxlQWFT/gJ0pvmbcQQCCCCAAAJRFGBMEMWo0qZcBUiucpVivy4F6Ey7JGIHBBBAAAEEYiHAmCAWYaaRWQRIrrKgsKlwATrTwu04EgEESijwwtXSzBOlf95WwkpwagSiJcCYIFrxpDW5CZBc5ebEXnkI0JnmgcWuCCBQeoFtr0mrn2iux7K7Sl8faoBAhAQYE0QomDQlJwGSq5yY2ClfATrTfMXYHwEESiGwdMEa/eKbi7SjcaB3+jffPky3/vvj2rRmeymqwzkRiKQAY4JIhpVGdSDAHxHuAIbN3RewzrSyoqr7BVECAgj0mMDaN7bq5q88qk1rd6TOefwZh+kz3/mg+lQE/0/G0//3qtavqNfULx+fOl+2lRk3P68//2Zh6q22ddrduFd3/+BvOmXqEap734Gp/dqtNKyU3vqzNjYcpN/ctk81Bw7Q+d85Tf/z3e36l3MH6Ykl5Zpw7tG669rZ2v+ggTrrzI0a0G+ndMgnpd592xXHBgQQyE2AMUFuTuzlvkDw/1K6b0ILAhSgMw0Qk6IQKLKAJTqP/GqBvvyLj+nAQ5p/MWJJy8O/ekH2vRjJVVdN8pMm2+/muRel6mB1vfaTD2bUtauyvPdf/L605WXtL+msi36ug9//fs28fYFGvv9oHTpxrMrnzvZ2u/L2KVrz9EMasOKG5mKTSWnU53I6BTshgEB2AcYE2V3YGi0BbguMVjxD2RrrTFkQQCDcAjZj9cKTb+iqu6emEiursSVUNqs0oKqiJA2Y9/hy77xtZ85O+pfDNekLY/Xsw0vzq1fjhtT+B9cN0M7tu7Vw9puaMm2st92+z7xtgbc+dHif1L7aw22CrRisIVC4AGOCwu040g0BZq7ciJPzteS3Vc6HkAZEXMCSlPdNOKTLJMpmjFa88rZ27dit5S+t82aOtm/ZpRumzUwJffbqD8mSH1v82/5qR1Tqt9f91dv2kc+NaXcbYPptf/7xNmv1z+dXe7f6ZZs1O3R0rZcQ7tjamJrRSlWio5Wjr9SaP9+soSecLg0+Sg9eOzuVWNkhNUMHqu64oXpm5lJ9YMok1S99TltXLNeIUyd3VCLbEUAgTwHGBHmCsbtTAsxcORUutyvLb6vcjh+1j66AJTFb1u/Qu949KKdGvvz0Sn3s4vfp+pnnebNcq5dt0g2zPqvb5k+T3U43Z8YSWcLjL/5npex9u7XPzmVJl7/Y+0efNCx1vN2aaDNpVi+bWRo4OPtnnQYObp5N276l9Vx+mR1+P+CDuv/pz0qHf0Grlm7yHlwxZvzBGbtPOHe0nrx/sXfu9VWX6ffPnSsNyNwn4wBeIIBA3gKMCfIm4wBHBEiuHAlUVKpJZxqVSNKOqAtYcnPVlPt0yXG3e9/ttb8cd/phGbcOnvqpo1MzXkMPHaz+lRVKT3hspsqfybIZKHvohM1IWfJki73vP4Ti4CPfpZHHHiCbDSv28uB/PKOz//0D7U7Tb2Af+QlWuzfZgAACgQkwJgiMkoJCJMBtgSEKRlyqYp0pTxGMS7RppwsClvAMrh2gt9/alkpy7IEWNjNlM1C/vqb5IQ8dtcUSr/QnDNoT+DpbbCaq74C0zzN1sLPVyxIdS7T8B2yk7+oncP4MVvp7Xa3b56zsFsBhdTVZd/3AlDrvVscDD67M+j4bEUAgGAHGBME4Ukp4BJi5Ck8sYlUTflsVq3DTWAcE7La89NmkXKtsidXvf/6c9yAMu+3Pbg888NDqTg+3ZMk+s9XVYsnVe44/yLvN0J/lSj/m9cXrddBh1alZs/T3OlzftlwfOvJJLX/sPp19ZftZq/TjplwyVlufv1snHf43aU/ro+nT92EdAQS6L8CYoPuGlBAeAZKr8MQidjWhM41dyGlwiAXstjybvbrx0oczPi/VVZUtUbLZJUuEbFnz+hatfX1zxmHzH3/N+wyVbbSZsBm/+HuHD6nIOFDSuNNHepvsb1ilJ1j2mS37bNfpnzmm7SGdv37pBzpu5N911kkz1S+5qtN964b+UxOPfVwn1M2V3niw0315EwEEuifAmKB7fhwdHgFuCwxPLGJZE+tMuUUwlqGn0SEUsEeuW9Jy5cTfZtTOnt6X7bY828k+I2VJzpdPvtM7xv64b9uZq6NPGq5H73hBzz/2mrePled/xirjRFleWNJ28Q8+LHuaoH8Ofzc7l5/U+dvSn1po2+wBGxnn2l3v76q7r5ulDdteSb1uu3L4gS9p8nEtW98p/mfA2p6f1wjETYAxQdwiHs32Jmqqa5NhblpVZbUO7c0jcMMcoyDqRoIVhCJluCeQlBIJJZP7lEzs0/RFV7vXhC5q7D+K3RK3IBebxbLZLEvYDjl6iL708zNyuz1ww3PS6w9oxdvD9dv7R+i94w/Wh88d7c2+add6qW+t95TAh3+1QK/OX6MvfX6JBg/aIR3xJan/u4NsQt5lnVZ3pRLJXt41o1D/y5130zgAgQwBxgQZHLF78WLDPdpan3kHhEsIzFy5FK0I15XfVkU4uDQNgSII+DNaNquV1zLkBGnICRoh6btTpJm3L9ANl8zUl8/9s6q0WG82fEh3/98472mBZ3/1xLyKZmcEEAhGgDFBMI6UUhoBkqvSuHPWLAJ0pllQ2IQAAkUVmDJtrE6b0k8V8//DO8/B/f+q797346Kek8IRQKBrAcYEXRuxRzgFSK7CGZfY1orONLahp+ERFfD/vlWYm1dRO0oaOFLavlwaOjHMVaVuCMRKgDFBrMIdmcaSXEUmlNFpCJ1pdGJJSxBwQqBXmTT+HieqSiURiJsAY4K4Rdz99vIodvdjGMkWWGfKggACCCCAAAIIMCbgGnBJgOTKpWjFrK50pjELOM1FAAEEEECgAwHGBB3AsDl0AiRXoQsJFUoXoDNN12AdAQQQQACB+AowJohv7F1qOcmVS9GKaV3pTGMaeJqNAAIIIIBAGwHGBG1AeBk6AZKr0IWECmUToDPNpsI2BBBAAAEE4ifAmCB+MXepxSRXLkUr5nWlM435BUDzEUAAAQQQaBFgTMClEFYBkquwRoZ6ZRWgM83KwkYEEEAAAQRiJ8CYIHYhd6LBJFdOhIlKpgvQmaZrsI4AAggggEB8BRgTxDf2YW05yVVYI0O9OhWgM+2UhzcRQAABBBCIjQBjgtiE2omGklw5ESYqmU2AzjSbCtsQQAABBBCInwBjgvjFPKwtJrkKa2SoV04CdKY5MbETAggggAACkRdgTBD5EDvRQJIrJ8JEJTsToDPtTIf3EEAAAQQQiI8AY4L4xDqsLSW5CmtkqFdeAnSmeXGxMwIIIIAAApEVYEwQ2dA60TCSKyfCRCVzEaAzzUWJfRBAAAEEEIi+AGOC6Mc4rC0kuQprZKhXQQJ0pgWxcRACCCCAAAKRE2BMELmQOtEgkisnwkQl8xGgM81Hi30RQAABBBCIrgBjgujGNqwtI7kKa2SoV7cE6Ey7xcfBCCCAAAIIREaAMUFkQulEQ0iunAgTlSxEgM60EDWOQQABBBBAIHoCjAmiF9OwtojkKqyRoV6BCNCZBsJIIQgggAACCDgvwJjA+RA60QCSKyfCRCW7I0Bn2h09jkUAAQQQQCA6AowJohPLsLaE5CqskaFegQrQmQbKSWEIIIAAAgg4K8CYwNnQOVFxkisnwkQlgxCgMw1CkTIQQAABBBBwX4AxgfsxDGsLSK7CGhnqVRQBOtOisFIoAggggAACzgkwJnAuZE5UmOTKiTBRySAF6EyD1KQsBBBAAAEE3BVgTOBu7MJac5KrsEaGehVVgM60qLwUjgACCCCAgDMCjAmcCZUTFSW5ciJMVLIYAnSmxVClTAQQQAABBNwTYEzgXszCWmOSq7BGhnr1iACdaY8wcxIEEEAAAQRCL8CYIPQhcqKCJFdOhIlKFlOAzrSYupSNAAIIIICAOwKMCdyJVVhrSnIV1shQrx4VoDPtUW5Oli6QTH/BOgI5CHDN5IDELggULsCYoHA7jpRIrrgKEGgRoDPlUii1wLYtO0tdBc4fUoH6LQ0hrRnVQiCaAowJohnXnmgVyVVPKHMOZwToTJ0JVWQq6k9CJJTQ3Tc9oW0MoiMT26AaUr9lh37105lKtBToXzNBlU85CCCQXYAxQXYXtnYukKiprg11P11VWa1De0/uvBW8i0DAApUVVQGXSHEIZBNo7X6TyaSSiX3el5L7pIQ/lJZa98pWBtuKJbC9aVuxis653EQy2XwtJHspkfR/H9p6beRcEDsigEDBAowJCqYr6MAXG+7R1vrNBR0bhoPKwlAJ6oBA2ATst1V0pmGLShTrY4PklsGzkkp4d2onlEj0UtJLqZoH0XEbSvfdr1wj9z/IC/jyjau1a09TSYJfWT5Y2xrrS3Ju76SJZPO1kEy7AizpJtsuXUw4cywFGBPEMuwFN5rkqmA6Doy6AJ1p1CMcovYlLbFKeAlVr2RCyURC3oxFiKrYk1Wp7lepvmUV3iltfc3Wt3vy9Bnnqiyv0ramEiVYLUlVwk+uSKwyYsMLBHpSgDFBT2q7fS6SK7fjR+2LLEBnWmRgipe8T9I0T0XYjJUs0fJeps1WxMxp1+7d6mUWkmy9eUavdAg2g2V9QckW/xZRZqxKFgJOjIAJMCbgOshFgOQqFyX2ibUAnWmsw99DjbdEKuklVnbC5nmslryrh2oQptNs3bVDr21c7VXJ1tM/f1aqelb2LUGCZZeEXQYkVaUKO+dFoJ0AY4J2JGxoI0By1QaElwhkE6AzzabCtmAF/JkqS61aRtMxHlRvaSj9wyTaxreyvFL1PfwZLP+qaFsXXiOAQOkEGBOUzt6FM/uPHnKhrtQRgZIKWGfKgkDxBWw4zVdYDXjQTfF/AjgDAi4IMCZwIUqlqSPJVWncOaujAnSmjgaOaiMQoAAJVoCYFIWAwwKMCRwOXhGrTnJVRFyKjqYAnWk040qrEMhHgAQrHy32RSC6AowJohvbQltGclWoHMfFWoDONNbhp/EIeAIkWFwICCBgAowJuA7SBUiu0jVYRyAPATrTPLDYFYGICpBgRTSwNAuBPAUYE+QJFuHdSa4iHFyaVnwBOtPiG3OG+An07tVb+w+o8r5sPewLCVbYI0T9EOgZAcYEPeMc9rOQXIU9QtQv9AJ0pqEPERV0TGBwv4E6tGao92XrLiwkWC5EiToiUHwBxgTFNw77GUiuwh4h6ueEAJ2pE2Giko4IlPVq/acpfT3s1SfBCnuEqB8CPSPAmKBnnMN6ltZ/wcJaQ+qFgCMCdKaOBIpqhl5gy87t2rm70fuydZcWEiyXokVdESieAGOC4tmGveSysFeQ+iHgkoB1pgyuXIoYdQ2jQNPePXp57ethrFpOdbI+gIFVTlTshECkBRgTRDq8HTaOmasOaXgDgcIEGFQV5sZRCERJgF+yRCmatAWBwgUYExRu5+qRJFeuRo56h1qAzjTU4aFyCPSIAAlWjzBzEgRCL8CYIPQhCrSCJFeBclIYAq0CdKatFqwhEFcBEqy4Rp52I5ApwJgg0yPKr0iuohxd2lZyATrTkoeACiBQcgESrJKHgAogEAoBxgShCEPRK0FyVXRiThB3ATrTuF8BtB8B8aAbLgIEEPAEGBNE/0IguYp+jGlhCAToTEMQBKqAQIkFmMEqcQA4PQIhEWBMEJJAFKkaJFdFgqVYBNoK0Jm2FeE1AtkF+vWp0LEHjfK+bD1KCwlWlKJJWxAoXIAxQeF2YT+S5CrsEaJ+kRKgM41UOGlMkQQG9xuo8rL9vC9bj9pCghW1iNIeBAoTYExQmFvYjyK5CnuEqF/kBOhMIxdSGhSwwM7djakS09dTGyOwQoIVgSDSBAQCEGBMEABiyIoguQpZQKhOPAToTOMRZ1pZmMCWndu17O1V3petR3UhwYpqZGkXAvkJMCbIzyvse5NchT1C1C+yAnSmkQ0tDQtAwJKqKCdWPhEJli/BdwTiLcCYIDrxJ7mKTixpiYMCdKYOBo0qIxCwAAlWwKAUh4CjAowJHA1cm2qXtXnNSwQQ6GEB60wZXPUwetFOlyxayRQcbYHKikrVN9ZHu5G0DgEEuhRgTNAlUeh3YOYq9CGignEQ4LdVrkc5qeb/pKTlV+RYrge0JPW3BEsJBffVcim2Xp0laRYnRQCBPAUYE+QJFrLdmbkKWUCoTnwF+G2Vq7G3oav04X89Vp++4lQNqu7vakOod0QFtm7eoTt++qgemz5PCS97i2hDaRYCERJgTOBuMJm5cjd21DyCAvy2yrWgNidWNtlAYuVa7OJT36rqAbr46x/z0qrmKzY+baelCLgswJjAzeiRXLkZN2odYQE6U7eCa4lVUvuYsXIrbLGrrSVYSiSVSNgVy4IAAq4IMCZwJVKt9SS5arVgDYHQCNCZhiYUnVSED1Z1gsNbYRSwDwR6HwoMY+WoEwIIdCTAmKAjmXBuJ7kKZ1yoFQKiMw3/RZBUwnuQhc0IsCAQdoFky6QVV2vYI0X9EGgvwJigvUlYt5BchTUy1AsBiQQr5FeBf4MVg9WQB4rqZQj4123GRl4ggEDoBUiwQh8ir4IkV27EiVrGWIDONMbBp+kIIIAAAgikCTAmSMMI6SrJVUgDQ7UQSBegM03XCNE6UwAhCgZVyVmA6zZnKnZEIIwCjAnCGJXWOpFctVqwhkCoBehMQx0eKocAAggggECPCTAm6DHqvE9EcpU3GQcgUDoBOtPS2XNmBBBAAAEEwiTAmCBM0WitC8lVqwVrCDghQGfqRJioJAIIIIAAAkUXYExQdOK8T0BylTcZByBQegE609LHgBoggAACCCAQBgHGBGGIQmsdSK5aLVhDwCkBOlOnwkVlEUAAAQQQKJoAY4Ki0eZdMMlV3mQcgEB4BOhMwxMLaoIAAggggEApBRgTlFK/9dwkV60WrCHgpACdqZNho9IIIIAAAggELsCYIHDSvAssy/sIDkAAgdAJWGdaWVEVunpRIQQQyBTYuX237rp2tnZtb9L+Bw3UJ7/6AfUb2EdLF6zRk/e/rL4D+nivz77yA5kH8goBBBDIUYAxQY5QRdqN5KpIsBSLQE8L0Jn2tHjw51u1cpWm//4hXXTxBRpUOSh1gm3123TnHXfprE+c6W2783/uUmNjY+p9f2Xi6RN08skn6dd3/sbbdOFFn1N5Rbn/dur7k7P+orl/e1oXff4CDRs+TC8v/ofmznlaHe2fOjCHFWtDev0qKipS57HD7dyzHn8yVZLVecLED3uvrZ23/vdt2rp1q/e6qqpKl33xkgyL1IEdrDQ1NnntX/HmitQehZSTOjjglSfvX6wPTKnTmPEHa9XSTbr1yj+rakh/DRxcoc9dM95LrCz5sveG1dUEfHaKQwCBuAgwJihdpEmuSmfPmREIXIDONHDS0BVoydA1133Xq1e2pMiSi4qKcq1bt17Llr2mo0cfldEGS2DmP78gY1tQL9ombVauJVsrV67ykrj7733AO9WPfvpD77vVdf785rrYfvfec7/O//S53r62g9W/vr4+r+TKK1jS+Z85L9V2O+999z4QSPLol9/2u51jSO2QVKLY9n3/9dL5azRl2ljvpSVPle/qr5VLNuojF4zxEit7o2boQG9myz+G7wgggEAhAowJClHr/jEkV903pAQEQiVAZxqqcJSkMo2WYJWXa/GixakEw6/IvHnzVVlVqfLG9jNa/j6FfLdEz5K2K678fxnJkCWD9mWJVH39Np18ykmp4m1W7aSTm29/s/dshmnIkCGp90eNOiy13p0VO6fNCDY1NWWdyetO2fkeW3fcUM1//DUN2r+/Zt42X/v1KdOYUw/Ww7cv0No3tmj0ycO1bdMu9R0YbHzyrSf7I4BANAQYE/R8HEmuet6cMyJQdAE606ITh/4E494/TvOen+/NHFlyY4slODZDZMnGrCdab80LojGWyB13/NiMxCq9XEukKisHZU34bD97z24H3LBhQ2rmKv34INfb3n7Y2a2JIw4ekTHjZUnkvXffl6rO2ed8Un9/7nn5tyGm326Z2kmSfdbqL/cv1gtPvq7+lRU6dHSt9u1N6oxpx3q7vXtUjR67a6ESiYQWzn5D697Yog/8y+E6cXJdejGsI4AAAnkLMCbIm6xbB5BcdYuPgxEIrwCdaXhj01nN6rfW60c//Em7XeyzS/kslZWVGn3M0d5nqc49/xzvULvNzma17Pa1IBd/Vmr0MaM7LXbqWWd6n4f61te/nXHbnh1kCeDkKZN0y3/9Um0Tmk4L7eJNq9sjD//Js7DPsfmJ1aQpH/Nm9ey1fZ6trm6UVwe7hTH9PfsMmH97pSVWj8x8VN/69je8JNIS1camJl16+TR1dlugfX7qwf94RlMuGavJ08bqhmkz9Y9nV+nK26ao36rbpE0vSKM/rf0uGettP+rEYbrg2vF68r7FuuXKx3X5Dad30UreRgABBDoXYEzQuU+Q75JcBalJWQiETIDONGQByaE6dsveFRdn3lrnJwA5HJ6xiyUMixe97CUU5eXlXqJls1Z2y2Ahi59c5PuQCf9cNntliYif4Fiikl6WfT7MPo9ln9269urrlD6j5Jdh37N9Piv9fVv3Z5faPlDDkicz9m85tITLktClS5d5yVX6Z9TsveEjhmn9+vXe/vbQD0u8/IeN+DOCbc/dJKkFeQAAIABJREFU9vXC2W96iVXd2KHeW/uVl+no0UPUb+8yaXnLLNiSWzRmwnTd+6M5uuQnp3n7TThvtDat3e49SdA/tm3ZvEYAAQRyFWBMkKtU9/YjueqeH0cjEHoBOtPQh6hoFbTBf23tENnnrCzRsicMDm+5RTDIk/q3/FkSkp6cdHQOS06+cdXXvCQq24Mm7OmB48Yd5z05sLa2Nqcy257Lf6CFJWo2c+U/CdHqaLfwWfKWvhxzbPOsm8102dMW/dv8bB9L8uzzWuZnty/mu9iDK56ZuVTvrtvfe2hF4849en3xBmnQGKlmjLRpoTRsspdEHXjIYC15frUOG3OA93rVq5s0edpx+Z6S/RFAAIGsAowJsrIEupHkKlBOCkMgnAJ0puGMS0/UymaqLMGw2R6bobHExmaOClksceooebJbAm1mxx4Fb8lWLos/s5btQRPps0Ztz2lJ4zev+noup/Dqs2zpa5o792nvSX6WrFki5d8qmV6In1iZmc2w2WK3+9liM382C2YP3mj+BJu3Oaf/2WPX7W9Z2SPWm3buVnnfMo089gDNvONlTZl2q7Rnu3Y2lusPP3lMH71wjH73H8/Ikio75rIbPpJ6imBOJ+tkp0EVldq+a3sne/AWAgjEQYAxQXGj3Ku4xVM6AgiERcA6U5b4CdjT9+xzVuvXbfBmg4ol4N9m9/Mbf5GRvFlS9/TcZ7yHaTz68J+8734d7FY8S1gscbFbDu3LXywBXLlilSwZ6s5iid6kyR9NPdzDZu6s3PRz+eW3nZ3y62DvWzmj6g7zPnPlJ6fWNvs8Vi6L3dZnn5066LBqDTt8fyWTSc2ZsUTfP2+6bvjibF3zid+pbL9eevOVtzVk2CB96soTvc9dWYIV5GIJFgsCCCDAmKB41wAzV8WzpWQEQifAb6tCF5KiV8iSApuJsaf5+Z8VynbStrfK5ftQCTuPzfbYLFn6Azn8P+Br79vfrEq/HS/9HHa7nf3xYf+zUlZH/9a+bPXNZ5vNdI07/jjdd88D3me8zvv0ORnnSv9cls3u2UM1bLG62+ez/MX/Y8d++/zj7H0ztvp39LRAv4yNa3akkqYJ5472/ohwxYA+OvNL7/f+uLDtN/P2Bd5nrezvXRVjqayoUv0uftlSDFvKRMAlAcYExYlWoqa6NlmcooMptaqyWof2nhxMYZSCAAKegA2uWLorkJQSCSWT+5RM7NP0RVd3t0COj4HAgzc8oxOnHC77HJY9nv3O7/5Fb6/apg9+4khNOPdoTyB9nyBJzjrmOiWSvZRI9JKSSdU31gdZPGUhgICjAmEbE7zYcI+21m92VFNi5srZ0FFxBAoX4LdVhdtxJALdEbDZKvvs1f4HDdTG1dtTTxG02Sp7RPuw9+zvJV2WfBV78WawuF242MyUj0DoBRgTBBsikqtgPSkNAWcE6EydCRUVjZCA3ep35e1TvAQq/fNUU6aNlaaNbbe92E0nwSq2MOUj4IYAY4Lg4sQDLYKzpCQEnBOwzpQFAQR6XiA9sUo/e0fb0/cJej1stwQF3T7KQwCB3AQYE+Tm1NVeJFddCfE+AhEXoDONeIBpHgI5CJBg5YDELgjEQIAxQfeDTHLVfUNKQMB5ATpT50NIAxDotgAJVrcJKQCBSAgwJuheGEmuuufH0QhERoDONDKhpCEIFCxAglUwHQciECkBxgSFh5PkqnA7jkQgcgJ0ppELKQ1CIG8BEqy8yTgAgUgKMCYoLKwkV4W5cRQCkRWgM41saGkYAjkLkGDlTMWOCERagDFB/uElucrfjCMQiLwAnWnkQ0wDEehSgASrSyJ2QCAWAowJ8gszyVV+XuyNQGwE6ExjE2oaikCHAiRYHdLwBgKxEmBMkHu4Sa5yt2JPBGInQGcau5DTYATaCZBgtSNhAwKxFGBMkFvYSa5yc2IvBGIrQGca29DTcARSAiRYKQpWEIi1AGOCrsNPctW1EXsgEHsBOtMOLoFkB9vZjECYBQq8bkmwwhxU6oZAzwkwJujcmuSqcx/eRQCBFgE6084vhW1bdna+A+8iUEKBoK5PEqwSBpFTIxAiAcYEHQeD5KpjG95BAIE2AnSmmSD+BEBCCd190xPatqUhcwdeIRACAbsu7fq069QW/7ottGokWIXKcRwC0RJgTJA9noma6tru9rPZSw5oa1VltQ7tPTmg0igGAQSCEGBwZYqtXWcymVQysc/7UnKflGgexGbuFYQ8ZSDQtUDr1WeXaVJK9FIi2fKVdm2qJdnqusTsezCwyu7CVgTiJhD0mODFhnu0tX6zs4xlztaciiOAQMkEbFAVdGdassYUfGIbwtrAtfl7QnYjQEKJRC8lvcSreYibMdAt+FzxOrDvfuUauf9BXqOXb1ytXXua4gUQWGuTSiQSSnpzVonmXMquV0u4uplYWRWtDyDBCixYFISAswKMCTJDR3KV6cErBBDIUYDOtAUq2Tx0tYSqVzKhZCKhhDd4zRGS3doJVPerVN+yCm+7ra/Z+na7fdiQi4AlVAn1SjbPs3q3BQZ8bZJg5RIH9kEg+gKMCVpjTHLVasEaAgjkKUBn2jJ7ZfMAiV7ejEDCu1uQ+ao8L6WM3Xft3q1e5inJ1ptnBTN24UWuAi13r9oMVvOMlR0Y7PVJgpVrMNgPgWgLMCZoji/JVbSvc1qHQNEF6ExbEqyWGYHmeazAx69Fj2OYTrB11w69tnG1VyVbT/8MW5jqGfq6pGasbMX/jGCwiZVvQILlS/AdgXgLMCaQSK7i/TNA6xEIRIDO1B+wWmrVMoj1x7KBCMevkC0N2+LX6CK02L8yg56tylZVEqxsKmxDIH4CcR8TkFzF75qnxQgURSDunWkzautQtijIFIpAyAVIsEIeIKqHQA8JxHlMwN+56qGLjNMgEAcB60xZEEAg3gKWYLEggAACcR0TkFxx7SOAQKACce1MA0WkMAQcFyDBcjyAVB+BgATiOCYguQro4qEYBBBoFYhjZ9raetYQQMAESLC4DhBAwATiNiYgueK6RwCBogjErTMtCiKFIuC4AAmW4wGk+ggEJBCnMQHJVUAXDcUggEB7gTh1pu1bz5ZCBXr36q39B1R5X7bO4rYACZbb8aP2CAQlEJcxAclVUFcM5SCAQFaBuHSmWRvPxoIEBvcbqENrhnpfts7ivgAJlvsxpAUIBCEQhzEByVUQVwplIIBApwJx6Ew7BeDNvATKerX+05S+nlch7Bw6ARKs0IWECiFQEoGojwla/wUrCS8nRQCBuAhEvTONSxx7op1bdm7Xzt2N3pets0RHgAQrOrGkJQh0RyDKYwL+iHB3rgyORQCBvASsM2VwlRdZLHdu2rtHL699PZZtj0OjrQ+I8sAqDjGkjQgEIRDVMQEzV0FcHZSBAAI5CzCoypmKHRGIrAC/ZIlsaGkYAnkJRHFMQHKV1yXAzgggEIRAFDvTIFwoA4E4CZBgxSnatBWBjgWiNiYgueo41ryDAAJFFIhaZ1pEKopGILICJFiRDS0NQyAvgSiNCUiu8go9OyOAQJACUepMg3ShLATiJECCFado01YEOhaIypiA5KrjGPMOAgj0gEBUOtMeoOIUCERWgAQrsqGlYQjkJRCFMQHJVV4hZ2cEECiGQBQ602K4UCYCcRIgwYpTtGkrAtEVILmKbmxpGQJOCZBgORWuola2X58KHXvQKO/L1lniI0CCFZ9Y01IEoipAchXVyNIuBBwUIMFyMGhFqPLgfgNVXraf92XrLPESIMGKV7xpLQJREyC5ilpEaQ8CjguQYDkewACqv3N3Y6qU9PXURlYiL0CCFfkQ00AEIitQFtmW0TAEEHBWwBIsBlfOhq/bFd+yc7uWvb3KK8fWWeIpYH0Av2yJZ+xpNQIuCzBz5XL0qDsCERZgUBXh4ObQNEuqSKxygIr4LvySJeIBpnkIRFDAgeQqoX3aG0F6moQAAl0JkGB1JcT7CERfgAQr+jGmhQj4As1j/oT/0snvoU+uku9IO5JvOYlLpRFAoPsCJFjdN6QEBFwXIMFyPYLUH4HcBGzMb2N/l5fQJ1c7dtVr075XtC35JjNYLl9p1B2BbgiQYHUDj0MRiIgACVZEAkkzEMgiYDNWNta3Mb+N/V1eEjXVtcmwN6B37zIN6FupRG+raeirG3ZO6ocAAggggAACCCCAQIgEEt6MlSVW77zj9seBnHhaoCHX79gUoguAqiCAAAIIIIAAAggggAACmQJOJFeZVeYVAggggECUBYb0H6aph1/qNXHGq7/Uhobmx7JHuc20DQEEEEAgGgKh/8xVNJhpBQIIIIBArgJ11ceqsrzG+7J1FgQQQAABBFwRILlyJVLUEwEEEIiJwPqG1ifEpq/HpPk0EwEEEEDAYQEnHmjhsC9VRwABBBAoQGBU9RjvqGWbFxZwNIcggAACCCBQGgGSq9K4c1YEEEAAAQQQQAABBBCImAC3BUYsoDQHAQQQQAABBBBAAAEESiNAclUad86KAAIIIIAAAggggAACERMguYpYQGkOAggggAACCCCAAAIIlEaA5Ko07pwVAQQQQAABBBBAAAEEIiZAchWxgNIcBBBAAAEEEEAAAQQQKI1AWWlOy1kRQAABBBDILlBe1k+jBjf/8eBlW15S096d2XdkKwIIIIAAAiETYOYqZAGhOggggEDcBeoGH6tJh33O+7J1FgQQQAABBFwRILlyJVLUEwEEEIiJgM1c+Uv6ur+N7wgggAACCIRVgOQqrJGhXggggEBMBZZtXqgNDW95X7bOggACCCCAgCsCiZrq2qQrlaWeCCCAAAIIIIAAAggggEBYBZi5CmtkqBcCCCCAAAIIIIAAAgg4JUBy5VS4qCwCCCCAAAIIIIAAAgiEVYDkKqyRoV4IIIAAAggggAACCCDglADJlVPhorIIIIAAAggggAACCCAQVgGSq7BGhnohgAACCCCAAAIIIICAUwIkV06Fi8oigAACCCCAAAIIIIBAWAXKwlox6oUAAgggEE+BIf2Haerhl3qNn/HqL7WhYVU8IWg1AggggIBzAsxcORcyKowAAghEW6Cu+lhVltd4X7bOggACCCCAgCsCJFeuRIp6IoAAAjERWN/wVqql6eupjawggAACCCAQUoFETXVtMqR1o1oIIIAAAjEVGFU9xmv5ss0LYypAsxFAAAEEXBQguXIxatQZAQQQQAABBBBAAAEEQifAbYGhCwkVQgABBBBAAAEEEEAAARcFSK5cjBp1RgABBBBAAAEEEEAAgdAJkFyFLiRUCAEEEEAAAQQQQAABBFwUILlyMWrUGQEEEEAAAQQQQAABBEInQHIVupBQIQQQQAABBBBAAAEEEHBRgOTKxahRZwQQQAABBBBAAAEEEAidAMlV6EJChRBAAAEEEEAAAQQQQMBFgTIXK02dEUAAAQSCEzjnqF367gd3qKbvvuAKjVhJm3b10vf/NkAP/KNvxFpGcxBAAAEEghRg5ipITcpCAAEEHBQgseo6aJZ4mhMLAggggAACnQmQXHWmw3sIIIBADASYscotyDjl5sReCCCAQJwFSK7iHH3ajgACCCCAAAIIIIAAAoEJkFwFRklBCCCAAAIIIIAAAgggEGcBkqs4R5+2I4AAAggggAACCCCAQGACJFeBUVIQAggggAACCCCAAAIIxFmA5CrO0aftCCCAAAIIIIAAAgggEJgAyVVglBSEAAIIIIAAAggggAACcRYguYpz9Gk7AggggAACCCCAAAIIBCZAchUYJQUhgAACCCCAAAIIIIBAnAVIruIcfdqOAAIIIIAAAggggAACgQmUBVYSBSGAAAIIxEbg/gek63dKBzZIT+2VLhwjffVE6T0VmQSp/dJ+lffTC6QxLbv96DvSo4dJW9dJVXXSzZOlMX2a31y3SPqKpAePySzTe7VTuv/v0i0Lpa1l0lZJZ46TrjpeOsA/107pK7dJH71E+mi/1jKee1K6sUZ60K9E61usIYAAAggg0C0Bkqtu8XEwAgggEF+Bqz4hnTtI0j5p4cvSF34j/exC6YSW5MiXSe3nb2jz/WcXSCdIWveydMrj0rzJUlWbfdJfNq6Vzv69dOok6YlTJS+fa6nDJ3+VVod+0lUTpCnPSqdOaNlvrfS11dLdE9JLZB0BBBBAAIFgBPzf7wVTGqUggAACCMRPoJc05hjp7hOlz/xVaixQ4IDh0nuXSW92dvxe6aYZ0pnnSVcc2pIw2f7pdXiseSbLNh9wjHT5aunWtc2F/voJ6WMTpIM7OwfvIYAAAgggUKAAM1cFwnEYAggggECmwMFHSmc+KD17qnRq2r8u1/9e+nXar/LSbwtML+HN16UXj5bek76x7fpa6ZbDpGU1bd9ofn2wJVNzpKd2SGcOaN527gTptCekMWOk62ulxQdlP5atCCCAAAIIdFcg7Z+/7hbF8QgggAACsRYokwbb7X07Jdntgi1LV7cFnvIdSTXNn9ua+aG02Si/gLTv67ZI6/p0vs8BNdKb9ZJakquKg6TraqXTH5X+7yudH5t2KlYRQAABBBDIW4DkKm8yDkAAAQQQyCqwV9oi6dS0xCrrfm02zvlB82eu2mzO+vKAwdIBa5tvPWzz7IzU/us2SQdXpl56K6ceKalP5oMtMvfgFQIIIIAAAt0XSLtRo/uFUQICCCCAQHwF3nxFeuhDrU8CLIrEgdLlr0n3b8pe+puLpFuGSae2zFpl34utCCCAAAIIFEeA5Ko4rpSKAAIIxEfAntS3SJo2X7q7i9v6uo1SJl3xL9L990k3vZ728IyWOnzmWenuMzp/2mC360ABCCCAAAIIdCDgxG2BvXuXqaK8QmVl+ymRSHTQFDYjgAACCBQmsL6gw7wHVTRIS1r+xtRvL0j7G1NpJeb6QIu0Q1KrDz0o7fdg88vffr350e8Vw6THL5Tunyed9sfMv3P1v1/IXodUgd1cqaqs7mYJHI4AAggg0FYgmUxq7949amxq1Dvv7G37tlOvEzXVtckw19gSqwH9B6qxcad279ktw2dBAAEEEAhOYN1XC0uugquBOyUdcGOtO5WlpggggIAjAjZ50me/Pqqo6KcdDdudTrBCf1ugzVhZYtW0u4nEypEfEKqJAAIIIIAAAggggECuAjZ5YmN9G/Pb2N/lJfTJld0KaDNWLAgggAACCCCAAAIIIBBdARvz29jf5SX0yZVNE3IroMuXGHVHAAEEEEAAAQQQQKBrARvzu/58hdAnV12HgT0QQAABBBBAAAEEEEAAgdILkFyVPgbUAAEEEEAAAQQQQAABBCIgQHIVgSDSBAQQQAABBBBAAAEEECi9AMlV6WNADRBAAAEEEEAAAQQQQCACAiRXEQgiTUAAAQQQQAABBBBAAIHSC5BclT4G1AABBBBAAAEEEEAAAQQiIEByFYEg0gQEEECgOwKbdvFPQS5+OOWixD4IIIBAvAX4FzXe8af1CCCAgL7/twEicej8QjAfc2JBAAEEEECgM4FETXVtsrMdSv1eVWW1ttZvLnU1OD8CCCCAAAIIIIAAAggUWcD1sT8zV0W+QCgeAQQQQAABBBBAAAEE4iFAchWPONNKBBBAAAEEEEAAAQQQKLIAyVWRgSkeAQQQQAABBBBAAAEE4iFAchWPONNKBBBAAAEEEEAAAQQQKLIAyVWRgSkeAQQQQAABBBBAAAEE4iFAchWPONNKBBBAAAEEEEAAAQQQKLIAyVWRgSkeAQQQQAABBBBAAAEE4iFAchWPONNKBBBAAAEEEEAAAQQQKLIAyVWRgSkeAQQQQAABBBBAAAEE4iFAchWPONNKBBBAAAEEEEAAAQQQKLIAyVWRgSkeAQQQQAABBBBAAAEE4iFAchWPONNKBBBAoOgCl//xVW3ctE7P3Fz0U3ECBBBAAAEEQilAchXKsFApBBBAIHiBET9+wkt+Nq58WFe1Kf7Tv1ukjZue113jM99oPeYJXXdI5nvdf3WZHnp9XfaE7LLfa/mmddr4+u91efdPlFHCiB88odVW9ot36KyMd3iBAAIIIIBA9wRIrrrnx9EIIICAMwIrvvmk5jVI6n+cTvtBerX/TeefOETScB3/halpbwzX5SeM9l43LX5EV7+R9pZDq21n1Fa8sliLli3T0hfna75D7aCqCCCAAALhFyC5Cn+MqCECCCAQkMCP9cTiJq+s0Sf/SCP8Uv99oo7p3/xiyPvO0qf97eO/qYlebrVBc+79ub/V/e/3fVUfPeEUfeCiW7XC/dbQAgQQQACBEAmQXIUoGFQFAQQQKLbAjQ/PU72d5IjjdLl3m99w/WTycSr3TzxktCaf1/zilM8e15yAvTFX/32fbRuui2+do+Vrmm/l27h+hZbPvUUXt7ldsHzILXpmqb/Pq1rwx2s00S+/g+9157Xsb7fr2dcPTlZl233PuEYPPPeqVq/PLPuslvOPuOgOPdNym+HG9S3nvXmOrju5uSTvHM/dKPm3HNq6pJ8/Z+W9qqemP6Hlftmvz9FdFw1vqUGbdq98Xg89abdRrtPGljLaVpXXCCCAAALxFCC5imfcaTUCCMRV4NYZmrdBUtloHX/JcOmQy3T8EZL2LtbDs+yNIRr3qcsknacvnticXCx99seaI+mUm+7VdWePUmXvJjU1NKmpSao8Yqquu/tGnZLmOWLiVNUNaN5HZZUacfJlum26ldnJ0tRSppXbUnbG3odco6fuvEwTR1WqXC37qLnsX9x/o5e8XXHRJNVZHmVlvVOpKm3QssZGNe1tKanlHBnlpl5UavSJtVo5+xHNW2MNG6XJX/uR95msiTe3tNsyUCtDtTpljN1GyYIAAggggECmAMlVpgevEEAAgYgL3Kf/fcGSKGn0+H/TxG9N0OgyqWn+I7rg1nnebXKV752kr142VeMsf9i7WHNuXCnpQn110qjmGa53WokscSk/YqK+eHbrtvq539PYoSN00PAROue+ZbIbEStPnqrrWndpt7Z0evP+doz39f25zTNsLXue9YOzNNqSm5WP6JITWvb53AytsPOPOktX/ru0zbI9SStm3aTPfex4ffjfbtWKr52mHz7nzdXJO8eEb7U7t79h6fTJOvVTF+ujX57VfLvgkOE6RVP1+YnN7V7xyOUt7TpFlzxiJiwIIIAAAghkCpBcZXrwCgEEEIi8wPRfzW1OHkZN0m0TbXaqSYue+rk0+9eabw+t6D9an798nHdbniVd3/AeZFGnWv8+vfJylfdv+SozriEafqLPVq9Fj7V+lmnWl5sTNpVVaJC/SwHfjx/RPFNUv3K+pvsP1njscs3x1stVOUK6+vPX6o7nVqrqI9/UA08+r2fuv6PdLYsdn7pe619pSZhm13sJYfO+4zS82tbqtfLZGS2f0Vqp6TfOb1nvuETeQQABBBCInwDJVfxiTosRQCDuArPva06iVKlKS5g2zNW9/2Eoc3X9s8sklWvIUJsmSn+QxTyt3Gz7NGnxzcdr/5oDtH/N8frGtT/WJRd9Qude4aNW6pgzLks9LGPizeOa1/c2apu/SwHfn1/RPNtWOfw4+Z+x0hm36BTv81ZNqrcnUxxer+e/dLxG1p6vh9fYjNYkXfyVAk6WcYjf7koNP3Fqa7u+0vJ5tIx9eYEAAgggEHcB73eOcUeg/QgggEC8BObq+lmLddYXmh+zvmLOrbqnBWDFjXO1+OxR3q2CWjmv5UEW9uYM/c+sK3TKeaM0+svPa/VFTVJZucq9zyEt1i2LTtO6ljIqT75GC9Z80/usk81w2VI/d4aubnm/kG/TvzNdXzr1Mo0ePkm3PbdCv7A7AG0GzW5pXDZdN8z+kZ76vws1uvdN3nvl3tMPm1S/WtKhhZzRP2aG/vuxK3TKZ0dpxKRbtGDNTWpSS7v9XfiOAAIIIIBAiwAzV1wKCCCAQAwFVtw2X4u9Bz2s1Pz75rYKvPEtzVnS/HLFvF97D7Lw35z15fP1lTvna0O9mm8LLJfqV87VLV++OONvYK2YNUNLdzTfNqi99Vr6yI/1r2fd6hdT2Pc3vqdTL7pVs5bZLXsttySqXivm3qqvnPtVzZp/q+754zLVv5N23gev1aXejFxhp/SPmnPF+br6wWWq9xO6vSs1ay6fufJ9+I4AAggg0CqQqKmuTba+DN9aVWW1ttZ796KEr3LUCAEEEEAg4gLHaeJ5w1W5V6pfOkOzFrY09+Y52njeKGnZfdr/hK9G3IDmIYAAAj0n4PrYn9sCe+5a4UwIIIAAAs4JzNcx50/XVSeUS4vHaez4b2mFhuuquubH1NevXuxci6gwAggggEDxBLgtsHi2lIwAAgggEAGBG++dK+9xGqMv1II1K7R6zfP66nHec+E151e/jkALaQICCCCAQFACJFdBSVIOAggggEA0Be47X5/60SNauqnlIRrlUtOmZZr+zYt1wWPRbDKtQgABBBAoTIDPXBXmxlEIIIAAAggggAACCCAQsIDrn7li5irgC4LiEEAAAQQQQAABBBBAIJ4CJFfxjDutRgABBBBAAAEEEEAAgYAFSK4CBqU4BBBAAAEEEEAAAQQQiKcAyVU8406rEUAAAQQQQAABBBBAIGABkquAQSkupAKH/EJ3XvqIbho7vl0FJ5+WfXu7HbNuuFjfvvRBTatqftPKuvO0i1v3rLpWN136iO5M26f1zfzXvPLPuVZHpA4dr2nnZKm/d97Wevm7Z7bV6m51879+ocn+jh19b2nPtw/paIfgth8x9sFWyyzt8Sys7unehZ6+5fpotUgrN8u5254m07X13Yw2tG7uYC3zWupgp7TNzbHPqHPGtZG2ayhWC7jeSllvuya67dkSoyCu0S4t8r1+uigwh+u+0xK84zvoUwKx7fTsGW/m8nP48Wvu0z13t3xd868Zx/MCAQQQyEeAPyKcjxb7ui2wtUEaN1WTF8zWwwW2xP6R/lr1n3XRE3dkLeHhJyallT1e084Yp41/nqQr3si6e34bq67VhJrlWq4jdUqVtGSrHT5bc5bhajrQAAAX/ElEQVRdrhOqR3rrfoFHjDxSleqvI0aOlxbMbtk8XkNrpI2vzZZs4HPOkVrywCT90CtH0iHXNieJ/mu/sLTvk8eN08blyzXysIulN7IbpO0e3OrWa3XFL9OKO+QXmlozTz/75bVakra5kFVLjKaOXK4Zv0yP3cX69jnDvCR2Sdtze3bVevKXX0mLdSFnDuaY5X+epB+2XF/Wlq+dc61+9kD3XYKpXUspBV5vgdahFIUdMlUnbFqu5SOP1eQnFIrrpSOGdn1b2+u+owM72r51tpZs/ZomjB2vh1N9UPPOkw8bqfplM7r9s9vRqfPdfuSlt+iTelCf/swfJB2ly//r27pmyh/0vZn5lsT+CCCAgMTMFVdBjARe0ZLlIzW1R36LbKwj9a6qBr29JRhiS5i0bIZmLJNOGNc6O7Zk8zrJBm+p04zXKaP6q35rgyq9pKvljarxOqJquV6ygfjgalVufUVz0hOpN67V7emvU+X5Kxfr2JHL9dITL2n5yI+kZuv8d3vy+xHVB0ibVnV/cJZK0tomSnfoh2FLUHIAfviJGVpeVS1LtUO1FHS9haoFBVXGkojlr31FLy0f6SUZBRXi7EH2i58GVY4anzbTbo2xfqRBS5b7v/QJRwPr1y9rqcg/tPrt1jrZjNY1U1pfs4YAAgh0JcDMVVdCvB8pgTlPzNC7Lp2qb792R+q3/e0baLfXTE0NUOvn/UxXLJit5hkO23uq7hw5VekzBn4Zqd/+zhumm84Zp0pLsc55RCdsnac5m8bpmM3NZfn7e2VqRoczYf5+kiVM0pLHZmuJxqt+XNpvwt94Scv1EQ21WxO95MiSuuV68oHNmnBO637ebNbyPzf/9nzLZtVXpc+AtZ6pw7VDjtXI5S/ph7pDWj5VE9rMik0752t6199nSB9psVtu7Vou236Cd9tkg5574OyWBM5ul7L9f6a33++/r6ymzfWxmHzk/7d3fqF1Vfke/8o4Krdw06mNyi33YTjNQ22hFyW0GC8UyjQDHXHI0FCG+lKhlER8C4I+1D5YKHmTm1AK9T5UpKRMGLEFowh5MKXloE4haR+SQx8GRRrNJJfby1yug5ffWvvP2vv8V2P37vkc0Oyz9/rzW5/f2rvrt3+/3zpavTSqrwbN02RnIz18WtX253OepMRTEvfXaFQHdGJfRbUbr7Yx0tK+z//qbb0z7E2XkZNXNeLG2KEHr4HHK5kvGU9oOP9CZo3GkDu39V+1PTkVtmNzo5rxaLm+B7f40rVZzWpEB8P5aaFb0VilrBzpvVDfbtJ9eNBmvll7mb4VMF+P5spyVdsHB9WXjMOf93PL5o7NPT9H4pcEmTHKvJN5I9qEzHKK7/dY/Ip5qwNOzbzWcfn0b/wywjxWNY3sO6Bdn9n9m36aymfs963p+reD2l8J7ouMTiQ1nH/heLJ6U65+PNZUn+GzLdRBJHOufqNnYDo66XbtljYGc88Ze46s39Js9CKnKYN4DlS/1v5BgxA9J9195J+t1lc8BntGps+aZmxC6dLjW58uSa+Na+zTMc0/P60j/Qs604nX6oXTenf4ri4v7taRIf8AvnZ2TNO/Pq13Rwd8ByszOnbaPGL+Y16y111Z/3155o+Rh+z3OnXxkFZnlrR7dMj92yEt6/JLp/R+5E3rn4vLWl3vYdu9+JbGzy1FrQd9PPmRLmtUR3baOd/OctD3xkK2Xl6uzPVonNdWh/TcTimR2c7H49S63NgXM6LwBQI9SQDPVU+qvZcHfUFvzdVUGW6SCxAttDR3WMfP2X+z+mZwzHlpLORvsnrP/yN/Lg3FakjThdTMquYWpYd1/NKb+s+VWu4trn+De73aweLcvE6KPE0u3KaivUne0wXdrEUhgCZMZARdceWe8kaXGXnbtmhjrebFNfnmvtb+o1c7zivxb+G9rFfqxuKbrQzv1c2IW60yondOjkkfepaztS0Zj5vVqAyn149fqmr7cH2emG85/X+dHhYt/CjkIcWGZLzITmuHRz/As3jnVZmcG26hfjhjFPcNTgT5az6PLVmUh922PN6i/Udjhod13Omo2Vytb8jCNvtqN70B/eu9CudxbeugRqI54xa0A7c06XR1WMdX9kYGa9SmW0TLhUq6+8Dk+G2U65d4+7xeJ2/8tV6Q/JkfMN/yTVQGpPMmr/Mo+oX0ruXJ6D49rJs70xciVjc/xsnqUw291r/7zYi2V+N2JvXJWtDz1kEd1LTvw/ReGVHH+YbxfWjN2QuQ6GVG3Hpb+bYOqn/FM3Zhn04nT+n6JX/u+LlJXX98JJdH2nr+/G5nqNOa+ixMWlLdPdUojDk/Jy5VFTh44mFl/7pnUPBsMgNon4UEeiOzLQNt0f5tNz1/ewGRvDSJGcShhfn54Nl0rKvFL3VXW/Xca+/p9aFVXX5lSrfcSHZrR/+6VhvxiEfaN6RDmtKxl/6oMwtybbz7zBfu+7GzC9rYeUhje+LCu3XgySWdeemPUfl1DQyP6+n4sskwLE2562/p2saAjrj8ryXNL65r4JkgF2zPAe3uW9ZHOcMqaWrnqP7tc9/P5ZUBHbn4nsYjOY/NLKtvaFQvRoW9YbWqy5Fcx16a0d0hC41MWpP6htQftefCJZ1hpbTOzKqeOxmOJajLIQR6jADGVY8pnOHaQudVzTYL03FvVauaTf4xvaDZqi3W6zfC6JrlnVldV7rAdUZQPjSvSaO2aFa0IPF5Vvd83lNUPjR2XD6DM6Lm9dW38cKmQSiOGQrnDmty+WlNNNnsIxHH8r0sJDDm0mCxaGVrc7FnwAw+dyIJNTQZ9bjPY4rbrc0FnqX1N/VJaCTGhdr+ndf5GzVV9sUbffiwyNpKB0Zrvm1bQHazwUdQ396ge4M8XvhFxnhQpv2heRpihjZXZ3U9Zzjm26gMxxuSXNVI6AW982rgnfX62L7N5nHE50aQl+XuibRlN4eqs2mOkJu73gPhSgWhh7fvXMh4Y9JWckfdzLdcVftaC+WNQlw/CXJ5XEhkUq9+jLc/m/O5T0mZ9CANn53XlTtBuNp6VefjPtz8lDzDtG7jo8grmszB3AuQBjqok289fA5JXifTyf1kzwGb99mwu9bz58rH4dwyj3f68qXxOOKz0XiS+9s8lm/qfPw8iIvV/c2FBmb01omO7il8+eSeg9WQwQWvn0y7JkT0TLDc0HafPeOaMo/RWW+IHDt7V4cuxqGAA+rvW9WXrbwxGwuaigwc84BtmAfnT5GnanFeSxtb1Z+8CFvS9OnYcJNc+b4nFPm4XOjBtXPx9SVNzy1L/Tuc8XXr3EdaDgy1p5/frb6VL/R+s/GtzCQ5Y+9/biGPgSH2wRdaVr92OKNvtw7s2arlGfOQxZ8/6/JCzpjbWNDlwJv34jMD2liYSet8MKNrsrbiNvgLgd4lQFhg7+q+p0d+pVrVwaNjOlGb11cBCZfLs7XijI3gtFTLbhiRudbxF7/5xES0GYTzBLUNSbPGzTCS+ioTemdwIuhtWCeqF/xiy4VdWa6NbVpxT7erfoFoBo0LR6pJ24NQnKAR3f5sVMc/sxCgCb2xNh8syNNS8QYZLhQuPa3K4Ms6nwlpSy/W1u45D096pv2R1TnYvlh9CTP2hof9Rh8yL1+1g4VfTavrW9T/K7em8W06A0DRG/Jt9f387GfMQJ5Qf4t+m4dm5cKkLITKeWXaeez8xif1802qGStjNOeN0JFcuGALMZNLncy3pHCzA5fDtabID9uglI3RPKNX9U7m6j2tJuGz/oJ5bWS7fJ4cqQudzFTt5otb7Et9+f4r8YY6beSr6yvYjCa8ltz3amLg5uZPLqTOwj3bep9cf+3mTChU9tgZjYP+3pRttBOHJruc1M505FtswsAu2nxQRfnnk9bXcvleWdns24t/GJIW3tJ0bEAtTmn8rDT12mmN7ejXEwtTqQFRXz17xnnAnmhtjGVC6ax6nOuVbar+25/1l5VRHXp+t7QoZ8RcO5eGG9aXD87cuauNjWY9mQFZ7527ZYlneyLDLmjKH5pHT+rb+YbeHcpeXDZDMmaZvcQ3CPQMAYyrnlE1A80QsLeu1RlN/PZNXf82veI2h6jdzIR7pVd//JHPQbA8qDQfo22rkTctvwOcy1OJ856inbn2PntA23UrfbsdLb7+vfKU+r6da7IAMwnszfqIDppnI3xz74SL3jAHu9K5026hluZ0tR1HBwUsdFFhWFYHdXyRSP6KGVa28cd0i7HGjWaN3fhssf76BaVWupXKG1b9Nw7reORdcPMlaSZnVDqjXBF7vyCv3WgR+poxQmd0IsmlSzpoc9BqvrWpGl+OvGdJDlOUb+aNBTOc72n1w8AzGtdr8NcMrCsfR6GEP8Fuiz4sNZ9L6XVi4bxX7rSRz4zYzMfrZFej+3O9lZEZzB93v1puYrwrps+pynTT9EuDFxFNy+YvxPfmy9LAFtVuxB7lNgzyzagFA3vOra/pfJNNaNKfrqhrtPGJxSlNLVhulIXKZfOZGlfo8GyUu3TmpVM+7NC8Zq890WFlyTxQR4YP6Ok9lnG1pKmfxIhZ1urGqPeu5dtb/TIKj8yL6Df9WM7kgOXL8B0CvUuAsMDe1X3Pj/z2Z9MuTM8SxpOPeUC6yatIKnZ44EKLKjp4dFjbw7Ar+0f3PxrHq7twoCQkMO0nDAVMQgUt5ybcRS/Ku9pli5okRMnyst7O5Y5479g3a0FIVNxVFHKThATG513b2Vyn+FKnf9NQPi+TbYkehnp12o6VM2+kBsZ0YvDroA1L+o5DfOpbc3Pg8ZGO887qW+jizPpf9Y0CXlvf1Il4o4SkmWxe2q5nx7Rf2fCwpGjLg7ynwevXV7HFroIwSmM/Em064kvY3GqWl7jr2bfTnSLdmCJBWszhdvPNPJZheJvlQYW3Zd1Q7T5Vdgc+l2+WFDTDWWmeWHLeH5ih6X8f7YBO/CYOJ5Xcy5Vc2WZfbRe5qZO7G1yOXkaE95sr5UPk3M8YuJ9QaC5fg0bl7vco/9Nf9z/1kIYL29kW8yfv7bOXNo06angukj3MVbX5a16KVnqP2vKy2xwLQot/EgYv64T9dqE9izTojxvK3/ykGSxh/pEr+cLpaNOJAR1qqOPm7bW68rS5ewKDxYX2taqQvxaF3o2fHNLduTh8MF+o2+9RPtfo6SQHS/q9To0OaPnz5p4x4zaQqdNtv5SHwINLAM/Vg6tbRtaWwLzOf3hAu44OBiVtC27b6S8MJ0p33HIhLifDHbWCqh0e2kJjpPKUrgdbEds/uhuLM/VvCV2uUxrml+nChcKNuE0KLOHdLwxt6+f4zbCV9t6Z/YM1fRLmR/xtTdszYwx2JMt0IvlNEoL8m+S6b3vCcp3qvF1JoZYHtWXpxMmr0c5YnvMP/Q2yeIG1P97QwfVsIS/L+kuQK5AVaF7nL83rK/t9qJNXM5cs3K6hLM5AvupDkOIdzDI1m32xzVT26p04VMxyaqr3NJKJPryn62t7Xd6Xb8V2uAtyo5o1XXfecgWHNWE7VbprNdWCGLorH0/qX45OpGO23QItDzFu586rmjTPru2IGJ+Ld+lbU9Cunze2cUjTOWz128w3Z+QOpPLYzn+23X/zT3yfpqGy+ToWfji7LafXOn1ZWHDar9xGJZ3w9hsdLP2pgVfDGaq1IG8zHYX3XEfhvB3Jl9ZNwjETnYY75cXlWswfy5vbF4y1Zr+Zl37aPduM56TCOWH3axu9x81HxrDtNhreU53pKG4kCEkNGNh9ap/zlyoutDkMnW4eMhu0+cEpndkxrdcvvqcj8emNBXnvku3g50PfMrvnxeW6/Ovypi6O6t2Lo67mxsqyNrpqwwwh6bmhZX3U9JnWVYOu8K1zYzqjLINkR8BmzTXjlmwG0qwi5yHw4BN46PFtT35f5GFu7dumdZ8oUGQxkQ0CnROwTRP2rQXbYpt3ZVRfvhImFHfeXDlLpmFr8Q/g/vhxNGjzhdOa2jFTt1Xxj+/rQWuhAbuuhliAOZyEvQWbNnQ1hi4KWzjXH77UeLDFdhe1H6CiBdD7A0Szk6G4nf2e/CizvXsn9SgDgTIRKPvaH89VmWYbsj4ABF7WG8MVt6tekiuiJU2/cuoBGNv9HUIcQjcZeug+OKXx+ytWKXp37LY29rZ0NoD7PYd9iFxfrZGHtbMRdFXKNj3I56d01cCDUvh+6/1B4djhOPaMa3xIuna2ebhehy1RDAIQ2EQCGFebCJemIRASiH+o0/3oZWgAhIU47p5AsgPaDw2h677Lstdwvy+Uyfdq9gO7RR2p97TFPyDspKwL+Suq7MgFgW4JmIfwDT3X53/AN9nZsNtmKA8BCPwsBAgL/Fkw0wkEIAABCEAAAhCAAAQg0I4AYYHtCHEdAveZQOWf49+hv8+CtOi+9l/pzzfmi5VB/rzMRfkO159PE73EupfG2m4GlY1FK3nbjZXrEIAABDohgOeqE0qUgQAEIAABCEAAAhCAAAQ2nUDZPVf8ztWmTxE6gAAEIAABCEAAAhCAAAR6gQDGVS9omTFCAAIQgAAEIAABCEAAAptOAONq0xHTAQQgAAEIQAACEIAABCDQCwQwrnpBy4wRAhCAAAQgAAEIQAACENh0AhhXm46YDiAAAQhAAAIQgAAEIACBXiCAcdULWmaMEIAABCAAAQhAAAIQgMCmE8C42nTEdAABCEAAAhCAAAQgAAEI9AIBjKte0DJjhAAEIAABCEAAAhCAAAQ2nQDG1aYjpgMIQAACEIAABCAAAQhAoBcIYFz1gpYZIwQgAAEIQAACEIAABCCw6QQwrjYdMR1AAAIQgAAEIAABCEAAAr1AAOOqF7TMGCEAAQhAAAIQgAAEIACBTSeAcbXpiOkAAhCAAAQgAAEIQAACEOgFAhhXvaBlxggBCEAAAhCAAAQgAAEIbDqBwhtX33//vR566KFNB0EHEIAABCAAAQhAAAIQgMD9I2Brflv7l/lTeOPqu+/+T4/88pEyM0Z2CEAAAhCAAAQgAAEIQKANAVvz29q/zJ/CG1d//9+/67HH/kmPPvIoHqwyzzRkhwAEIAABCEAAAhCAQAMC5rGytb6t+W3tX+bPQ49ve7Lwvrdf/OJhPfboY3r44V9iYJV5tiE7BCAAAQhAAAIQgAAEcgQsFNA8VmZY/eMf3+Wuluvrw2UQ1yDf+5//LoOoyAgBCEAAAhCAAAQgAAEI9CiBwocF9qheGDYEIAABCEAAAhCAAAQgUDICGFclUxjiQgACEIAABCAAAQhAAALFJIBxVUy9IBUEIAABCEAAAhCAAAQgUDICGFclUxjiQgACEIAABCAAAQhAAALFJIBxVUy9IBUEIAABCEAAAhCAAAQgUDICGFclUxjiQgACEIAABCAAAQhAAALFJIBxVUy9IBUEIAABCEAAAhCAAAQgUDICGFclUxjiQgACEIAABCAAAQhAAALFJIBxVUy9IBUEIAABCEAAAhCAAAQgUDICGFclUxjiQgACEIAABCAAAQhAAALFJIBxVUy9IBUEIAABCEAAAhCAAAQgUDICGFclUxjiQgACEIAABCAAAQhAAALFJIBxVUy9IBUEIAABCEAAAhCAAAQgUDICGFclUxjiQgACEIAABCAAAQhAAALFJIBxVUy9IBUEIAABCEAAAhCAAAQgUDICGFclUxjiQgACEIAABCAAAQhAAALFJIBxVUy9IBUEIAABCEAAAhCAAAQgUDICGFclUxjiQgACEIAABCAAAQhAAALFJIBxVUy9IBUEIAABCEAAAhCAAAQgUDICGFclUxjiQgACEIAABCAAAQhAAALFJIBxVUy9IBUEIAABCEAAAhCAAAQgUDICGFclUxjiQgACEIAABCAAAQhAAALFJIBxVUy9IBUEIAABCEAAAhCAAAQgUDICGFclUxjiQgACEIAABCAAAQhAAALFJIBxVUy9IBUEIAABCEAAAhCAAAQgUDICGFclUxjiQgACEIAABCAAAQhAAALFJIBxVUy9IBUEIAABCEAAAhCAAAQgUDICGFclUxjiQgACEIAABCAAAQhAAALFJIBxVUy9IBUEIAABCEAAAhCAAAQgUDICGFclUxjiQgACEIAABCAAAQhAAALFJIBxVUy9IBUEIAABCEAAAhCAAAQgUDICGFclUxjiQgACEIAABCAAAQhAAALFJIBxVUy9IBUEIAABCEAAAhCAAAQgUDICGFclUxjiQgACEIAABCAAAQhAAALFJPD/HvZ96JMGYHkAAAAASUVORK5CYII=;" parent="1" vertex="1">
                    <mxGeometry x="460" y="256.19" width="175" height="167.63" as="geometry"/>
                </mxCell>
                <mxCell id="39" style="edgeStyle=orthogonalEdgeStyle;rounded=0;orthogonalLoop=1;jettySize=auto;html=1;exitX=0.5;exitY=1;exitDx=0;exitDy=0;entryX=0.5;entryY=0;entryDx=0;entryDy=0;" parent="1" source="25" target="29" edge="1">
                    <mxGeometry relative="1" as="geometry"/>
                </mxCell>
                <mxCell id="25" value="&lt;h1&gt;gatsby 설치&lt;/h1&gt;&lt;div&gt;gatsby 는 gatsby-cli 라는 cli 개발환경을 제공한다.&lt;/div&gt;&lt;div&gt;이는 다음 명령어로 쉽게 설치가 가능하다.&lt;/div&gt;" style="text;html=1;strokeColor=none;fillColor=none;spacing=5;spacingTop=-20;whiteSpace=wrap;overflow=hidden;rounded=0;labelBackgroundColor=none;align=left;" parent="1" vertex="1">
                    <mxGeometry x="565" y="640" width="280" height="80" as="geometry"/>
                </mxCell>
                <mxCell id="32" style="edgeStyle=orthogonalEdgeStyle;rounded=0;orthogonalLoop=1;jettySize=auto;html=1;exitX=0.5;exitY=1;exitDx=0;exitDy=0;entryX=0.5;entryY=0;entryDx=0;entryDy=0;" parent="1" source="26" target="31" edge="1">
                    <mxGeometry relative="1" as="geometry"/>
                </mxCell>
                <mxCell id="37" style="edgeStyle=orthogonalEdgeStyle;rounded=0;orthogonalLoop=1;jettySize=auto;html=1;exitX=0.5;exitY=1;exitDx=0;exitDy=0;entryX=0.5;entryY=0;entryDx=0;entryDy=0;" parent="1" source="26" target="36" edge="1">
                    <mxGeometry relative="1" as="geometry"/>
                </mxCell>
                <mxCell id="26" value="&lt;h1&gt;새 프로젝트 시작&lt;/h1&gt;&lt;p&gt;프로젝트를 만들고 싶은 폴더로 이동해서 다음 명령어를 입력한다.&lt;/p&gt;" style="text;html=1;strokeColor=none;fillColor=none;spacing=5;spacingTop=-20;whiteSpace=wrap;overflow=hidden;rounded=0;labelBackgroundColor=none;align=left;" parent="1" vertex="1">
                    <mxGeometry x="565" y="820" width="280" height="80" as="geometry"/>
                </mxCell>
                <mxCell id="42" style="edgeStyle=orthogonalEdgeStyle;rounded=0;orthogonalLoop=1;jettySize=auto;html=1;exitX=0.5;exitY=1;exitDx=0;exitDy=0;entryX=0.5;entryY=0;entryDx=0;entryDy=0;" parent="1" source="27" target="41" edge="1">
                    <mxGeometry relative="1" as="geometry"/>
                </mxCell>
                <mxCell id="27" value="&lt;h1&gt;실행&lt;/h1&gt;&lt;p&gt;gatsby 에서 실행을 하면&amp;nbsp;&lt;span&gt;페이지들을 빌드하고 배포하는 서버가 실행된다.&lt;/span&gt;&lt;/p&gt;" style="text;html=1;strokeColor=none;fillColor=none;spacing=5;spacingTop=-20;whiteSpace=wrap;overflow=hidden;rounded=0;labelBackgroundColor=none;align=left;" parent="1" vertex="1">
                    <mxGeometry x="565" y="1010" width="280" height="80" as="geometry"/>
                </mxCell>
                <mxCell id="50" value="" style="edgeStyle=orthogonalEdgeStyle;rounded=0;orthogonalLoop=1;jettySize=auto;html=1;entryX=0;entryY=0.5;entryDx=0;entryDy=0;" parent="1" source="28" target="52" edge="1">
                    <mxGeometry relative="1" as="geometry">
                        <mxPoint x="925" y="1320" as="targetPoint"/>
                    </mxGeometry>
                </mxCell>
                <mxCell id="54" style="edgeStyle=orthogonalEdgeStyle;rounded=0;orthogonalLoop=1;jettySize=auto;html=1;exitX=0.5;exitY=1;exitDx=0;exitDy=0;entryX=0.5;entryY=0;entryDx=0;entryDy=0;" parent="1" source="28" target="53" edge="1">
                    <mxGeometry relative="1" as="geometry"/>
                </mxCell>
                <mxCell id="28" value="&lt;h1&gt;배포&lt;/h1&gt;&lt;p&gt;github pages 배포를 기준으로 설명한다.&lt;/p&gt;&lt;p&gt;깃허브 pages 배포를 위한 전용 명령어가 있다.&amp;nbsp;&lt;span&gt;gh-pages (github-pages 의 약어) 라는 명령어이며 이 명령어는 혼자 실행될 수 있지만 공식 사용방법은 기존의 실행커맨드에 gh-pages 를 추가하는것을 설명했다.&lt;/span&gt;&lt;/p&gt;" style="text;html=1;strokeColor=none;fillColor=none;spacing=5;spacingTop=-20;whiteSpace=wrap;overflow=hidden;rounded=0;labelBackgroundColor=none;align=left;" parent="1" vertex="1">
                    <mxGeometry x="565" y="1190" width="280" height="150" as="geometry"/>
                </mxCell>
                <mxCell id="40" style="edgeStyle=orthogonalEdgeStyle;rounded=0;orthogonalLoop=1;jettySize=auto;html=1;exitX=0.5;exitY=1;exitDx=0;exitDy=0;entryX=0.5;entryY=0;entryDx=0;entryDy=0;" parent="1" source="29" target="26" edge="1">
                    <mxGeometry relative="1" as="geometry"/>
                </mxCell>
                <mxCell id="29" value="yarn global add gatsby-cli" style="rounded=0;whiteSpace=wrap;html=1;labelBackgroundColor=none;align=left;" parent="1" vertex="1">
                    <mxGeometry x="565" y="760" width="170" height="20" as="geometry"/>
                </mxCell>
                <mxCell id="34" style="edgeStyle=orthogonalEdgeStyle;rounded=0;orthogonalLoop=1;jettySize=auto;html=1;exitX=0.5;exitY=1;exitDx=0;exitDy=0;entryX=0.5;entryY=0;entryDx=0;entryDy=0;" parent="1" source="31" target="27" edge="1">
                    <mxGeometry relative="1" as="geometry"/>
                </mxCell>
                <mxCell id="31" value="gatsby new [프로젝트]" style="rounded=0;whiteSpace=wrap;html=1;labelBackgroundColor=none;align=left;" parent="1" vertex="1">
                    <mxGeometry x="565" y="950" width="130" height="20" as="geometry"/>
                </mxCell>
                <mxCell id="38" style="edgeStyle=orthogonalEdgeStyle;rounded=0;orthogonalLoop=1;jettySize=auto;html=1;exitX=0.5;exitY=1;exitDx=0;exitDy=0;entryX=0.5;entryY=0;entryDx=0;entryDy=0;" parent="1" source="36" target="27" edge="1">
                    <mxGeometry relative="1" as="geometry"/>
                </mxCell>
                <mxCell id="36" value="gatsby new [프로젝트] [스타터팩 git 주소]" style="rounded=0;whiteSpace=wrap;html=1;labelBackgroundColor=none;align=left;" parent="1" vertex="1">
                    <mxGeometry x="715" y="950" width="230" height="20" as="geometry"/>
                </mxCell>
                <mxCell id="44" style="edgeStyle=orthogonalEdgeStyle;rounded=0;orthogonalLoop=1;jettySize=auto;html=1;exitX=1;exitY=0.5;exitDx=0;exitDy=0;entryX=0;entryY=0.5;entryDx=0;entryDy=0;" parent="1" source="41" target="43" edge="1">
                    <mxGeometry relative="1" as="geometry"/>
                </mxCell>
                <mxCell id="45" style="edgeStyle=orthogonalEdgeStyle;rounded=0;orthogonalLoop=1;jettySize=auto;html=1;exitX=0.5;exitY=1;exitDx=0;exitDy=0;entryX=0.5;entryY=0;entryDx=0;entryDy=0;" parent="1" source="41" target="28" edge="1">
                    <mxGeometry relative="1" as="geometry"/>
                </mxCell>
                <mxCell id="41" value="gatsby develop" style="rounded=0;whiteSpace=wrap;html=1;labelBackgroundColor=none;align=left;" parent="1" vertex="1">
                    <mxGeometry x="565" y="1130" width="90" height="20" as="geometry"/>
                </mxCell>
                <mxCell id="43" value="develp 버젼의 서버를 실행한다." style="text;html=1;strokeColor=none;fillColor=none;align=center;verticalAlign=middle;whiteSpace=wrap;rounded=0;labelBackgroundColor=none;" parent="1" vertex="1">
                    <mxGeometry x="695" y="1130" width="180" height="20" as="geometry"/>
                </mxCell>
                <mxCell id="52" value="&lt;a href=&quot;https://www.gatsbyjs.org/docs/how-gatsby-works-with-github-pages/&quot;&gt;https://www.gatsbyjs.org/docs/how-gatsby-works-with-github-pages/&lt;/a&gt;" style="text;html=1;strokeColor=none;fillColor=none;align=center;verticalAlign=middle;whiteSpace=wrap;rounded=0;labelBackgroundColor=none;" parent="1" vertex="1">
                    <mxGeometry x="915" y="1255" width="370" height="20" as="geometry"/>
                </mxCell>
                <mxCell id="57" style="edgeStyle=orthogonalEdgeStyle;rounded=0;orthogonalLoop=1;jettySize=auto;html=1;exitX=0.5;exitY=1;exitDx=0;exitDy=0;entryX=0.5;entryY=0;entryDx=0;entryDy=0;" parent="1" source="53" target="56" edge="1">
                    <mxGeometry relative="1" as="geometry"/>
                </mxCell>
                <mxCell id="59" style="edgeStyle=orthogonalEdgeStyle;rounded=0;orthogonalLoop=1;jettySize=auto;html=1;exitX=1;exitY=0.5;exitDx=0;exitDy=0;entryX=0;entryY=0.5;entryDx=0;entryDy=0;" parent="1" source="53" target="58" edge="1">
                    <mxGeometry relative="1" as="geometry"/>
                </mxCell>
                <mxCell id="53" value="&lt;span style=&quot;color: rgb(217 , 215 , 224)&quot;&gt;gatsby-config.js&lt;br&gt;---&lt;br&gt;&lt;/span&gt;&lt;div class=&quot;token-line&quot; style=&quot;color: rgb(217 , 215 , 224) ; font-family: monospace ; font-size: 13.6px ; box-sizing: border-box&quot;&gt;&lt;span class=&quot;token plain&quot; style=&quot;box-sizing: border-box ; display: inline&quot;&gt;module&lt;/span&gt;&lt;span class=&quot;token punctuation&quot; style=&quot;box-sizing: border-box ; display: inline&quot;&gt;.&lt;/span&gt;&lt;span class=&quot;token property-access&quot; style=&quot;box-sizing: border-box ; display: inline&quot;&gt;exports&lt;/span&gt;&lt;span class=&quot;token plain&quot; style=&quot;box-sizing: border-box ; display: inline&quot;&gt; &lt;/span&gt;&lt;span class=&quot;token operator&quot; style=&quot;box-sizing: border-box ; display: inline&quot;&gt;=&lt;/span&gt;&lt;span class=&quot;token plain&quot; style=&quot;box-sizing: border-box ; display: inline&quot;&gt; &lt;/span&gt;&lt;span class=&quot;token punctuation&quot; style=&quot;box-sizing: border-box ; display: inline&quot;&gt;{&lt;/span&gt;&lt;span class=&quot;token plain&quot; style=&quot;box-sizing: border-box ; display: inline&quot;&gt;&lt;/span&gt;&lt;/div&gt;&lt;div class=&quot;token-line&quot; style=&quot;color: rgb(217 , 215 , 224) ; font-family: monospace ; font-size: 13.6px ; box-sizing: border-box&quot;&gt;&lt;span class=&quot;token plain&quot; style=&quot;box-sizing: border-box ; display: inline&quot;&gt;  pathPrefix&lt;/span&gt;&lt;span class=&quot;token punctuation&quot; style=&quot;box-sizing: border-box ; display: inline&quot;&gt;:&lt;/span&gt;&lt;span class=&quot;token plain&quot; style=&quot;box-sizing: border-box ; display: inline&quot;&gt; &lt;/span&gt;&lt;span class=&quot;token string&quot; style=&quot;box-sizing: border-box ; display: inline&quot;&gt;&quot;/reponame&quot;&lt;/span&gt;&lt;span class=&quot;token punctuation&quot; style=&quot;box-sizing: border-box ; display: inline&quot;&gt;,&lt;/span&gt;&lt;span class=&quot;token plain&quot; style=&quot;box-sizing: border-box ; display: inline&quot;&gt;&lt;/span&gt;&lt;/div&gt;&lt;div class=&quot;token-line&quot; style=&quot;color: rgb(217 , 215 , 224) ; font-family: monospace ; font-size: 13.6px ; box-sizing: border-box&quot;&gt;&lt;span class=&quot;token plain&quot; style=&quot;box-sizing: border-box ; display: inline&quot;&gt;&lt;/span&gt;&lt;span class=&quot;token punctuation&quot; style=&quot;box-sizing: border-box ; display: inline&quot;&gt;}&lt;/span&gt;&lt;/div&gt;" style="rounded=0;whiteSpace=wrap;html=1;labelBackgroundColor=none;align=left;" parent="1" vertex="1">
                    <mxGeometry x="565" y="1380" width="250" height="90" as="geometry"/>
                </mxCell>
                <mxCell id="61" style="edgeStyle=orthogonalEdgeStyle;rounded=0;orthogonalLoop=1;jettySize=auto;html=1;exitX=1;exitY=0.5;exitDx=0;exitDy=0;entryX=0;entryY=0.5;entryDx=0;entryDy=0;" parent="1" source="56" target="60" edge="1">
                    <mxGeometry relative="1" as="geometry"/>
                </mxCell>
                <mxCell id="64" style="edgeStyle=orthogonalEdgeStyle;rounded=0;orthogonalLoop=1;jettySize=auto;html=1;exitX=0.5;exitY=1;exitDx=0;exitDy=0;entryX=0.5;entryY=0;entryDx=0;entryDy=0;" parent="1" source="56" target="63" edge="1">
                    <mxGeometry relative="1" as="geometry"/>
                </mxCell>
                <mxCell id="56" value="&lt;span style=&quot;color: rgb(217 , 215 , 224)&quot;&gt;package.json&lt;br&gt;---&lt;br&gt;&lt;/span&gt;&lt;div class=&quot;token-line&quot; style=&quot;color: rgb(217 , 215 , 224) ; font-family: monospace ; font-size: 13.6px ; box-sizing: border-box&quot;&gt;{&lt;/div&gt;&lt;div class=&quot;token-line&quot; style=&quot;color: rgb(217 , 215 , 224) ; font-family: monospace ; font-size: 13.6px ; box-sizing: border-box&quot;&gt;&quot;scripts&quot;: {&lt;/div&gt;&lt;div class=&quot;token-line&quot; style=&quot;color: rgb(217 , 215 , 224) ; font-family: monospace ; font-size: 13.6px ; box-sizing: border-box&quot;&gt;&quot;deploy&quot;: &quot;gatsby build --prefix-paths &amp;amp;&amp;amp; gh-pages -d public&quot;&lt;/div&gt;&lt;div class=&quot;token-line&quot; style=&quot;color: rgb(217 , 215 , 224) ; font-family: monospace ; font-size: 13.6px ; box-sizing: border-box&quot;&gt;}&lt;/div&gt;&lt;div class=&quot;token-line&quot; style=&quot;color: rgb(217 , 215 , 224) ; font-family: monospace ; font-size: 13.6px ; box-sizing: border-box&quot;&gt;}&lt;/div&gt;" style="rounded=0;whiteSpace=wrap;html=1;labelBackgroundColor=none;align=left;" parent="1" vertex="1">
                    <mxGeometry x="565" y="1510" width="440" height="120" as="geometry"/>
                </mxCell>
                <mxCell id="58" value="서버가 깃허브에 올라감으로 기본주소가 username.github.io/reponame 등과 같이 변할것이다. 이를 알려주어야 한다." style="text;html=1;strokeColor=none;fillColor=none;align=left;verticalAlign=middle;whiteSpace=wrap;rounded=0;labelBackgroundColor=none;" parent="1" vertex="1">
                    <mxGeometry x="855" y="1395" width="220" height="60" as="geometry"/>
                </mxCell>
                <mxCell id="60" value="배포단계에서 깃허브를 위한 페이지를 만들기위해 gh-pages 를 추가해준다." style="text;html=1;strokeColor=none;fillColor=none;align=left;verticalAlign=middle;whiteSpace=wrap;rounded=0;labelBackgroundColor=none;" parent="1" vertex="1">
                    <mxGeometry x="1035" y="1555" width="210" height="30" as="geometry"/>
                </mxCell>
                <mxCell id="63" value="&lt;h1&gt;참조&lt;/h1&gt;&lt;p&gt;&lt;span style=&quot;text-align: center&quot;&gt;설치, 배포, 실행까지 fast start:&amp;nbsp;&lt;/span&gt;&lt;a href=&quot;https://musma.github.io/2019/08/09/gatsby-js.html&quot; style=&quot;text-align: center&quot;&gt;https://musma.github.io/2019/08/09/gatsby-js.html&lt;/a&gt;&lt;br&gt;&lt;/p&gt;" style="text;html=1;strokeColor=none;fillColor=none;spacing=5;spacingTop=-20;whiteSpace=wrap;overflow=hidden;rounded=0;align=left;" parent="1" vertex="1">
                    <mxGeometry x="560" y="1670" width="450" height="70" as="geometry"/>
                </mxCell>
                <mxCell id="65" value="&lt;!--StartFragment--&gt;&lt;img src=&quot;https://i.redd.it/2p83vsd1cul21.jpg&quot; alt=&quot;Infographic: Gatsby vs Hugo vs Jekyll : webdev&quot;&gt;&lt;!--EndFragment--&gt;" style="text;whiteSpace=wrap;html=1;" parent="1" vertex="1">
                    <mxGeometry x="1355" y="203.81" width="250" height="180" as="geometry"/>
                </mxCell>
                <mxCell id="67" style="edgeStyle=orthogonalEdgeStyle;rounded=0;orthogonalLoop=1;jettySize=auto;html=1;exitX=0.5;exitY=1;exitDx=0;exitDy=0;entryX=0.5;entryY=0;entryDx=0;entryDy=0;" parent="1" source="66" target="65" edge="1">
                    <mxGeometry relative="1" as="geometry"/>
                </mxCell>
                <mxCell id="66" value="&lt;h1&gt;jekyll, HUGO, Gatsby&lt;/h1&gt;&lt;p&gt;차이점&lt;/p&gt;" style="text;html=1;strokeColor=none;fillColor=none;spacing=5;spacingTop=-20;whiteSpace=wrap;overflow=hidden;rounded=0;" parent="1" vertex="1">
                    <mxGeometry x="1330" y="83.81" width="300" height="56" as="geometry"/>
                </mxCell>
                <mxCell id="68" value="&lt;h1&gt;MarkDown 페이지 추가하기&lt;/h1&gt;&lt;p&gt;&lt;a href=&quot;https://www.gatsbyjs.org/docs/glossary/markdown/&quot;&gt;https://www.gatsbyjs.org/docs/glossary/markdown/&lt;/a&gt;&lt;br&gt;&lt;/p&gt;" style="text;html=1;strokeColor=none;fillColor=none;spacing=5;spacingTop=-20;whiteSpace=wrap;overflow=hidden;rounded=0;" parent="1" vertex="1">
                    <mxGeometry x="1840" y="90" width="320" height="70" as="geometry"/>
                </mxCell>
            </root>
        </mxGraphModel>
    </diagram>
</mxfile>